<svg width="32" height="24" viewBox="0 0 32 24" fill="none" xmlns="http://www.w3.org/2000/svg">
    <rect x="5.5" y="8.5" width="22" height="11" stroke="#454B52"/>
    <path d="M5.5 19.5H27.5V21C27.5 21.2761 27.2761 21.5 27 21.5H6C5.72386 21.5 5.5 21.2761 5.5 21V19.5Z" stroke="#454B52"/>
    <path d="M5.5 7C5.5 6.72386 5.72386 6.5 6 6.5H27C27.2761 6.5 27.5 6.72386 27.5 7V8.5H5.5V7Z" stroke="#454B52"/>
    <rect x="21" y="12" width="1" height="5" fill="#454B52"/>
    <rect x="9" y="14" width="5" height="1" fill="#454B52"/>
    <rect x="19" y="14" width="5" height="1" fill="#454B52"/>
    <rect x="7.5" y="4.5" width="4" height="2" stroke="#454B52"/>
    <rect x="8.5" y="2.5" width="2" height="2" stroke="#454B52"/>
    <rect x="21.5" y="4.5" width="4" height="2" stroke="#454B52"/>
    <rect x="22.5" y="2.5" width="2" height="2" stroke="#454B52"/>
</svg>
