<svg width="42" height="24" viewBox="0 0 42 24" fill="none" xmlns="http://www.w3.org/2000/svg">
    <path fill-rule="evenodd" clip-rule="evenodd" d="M13.5 3H14.5V4H13.5V3ZM12.5 4V2H15.5V4H16.5V6H25.5V4H26.5V2H29.5V4H30.5V6H31.5C32.0523 6 32.5 6.44772 32.5 7V8V9V19V20V21C32.5 21.5523 32.0523 22 31.5 22H10.5C9.94771 22 9.5 21.5523 9.5 21V20V19V13.4667V9V8V7C9.5 6.44772 9.94772 6 10.5 6H11.5V4H12.5ZM9.5 13.4667L5.02 17.9333L4.07333 17L6.94 14.1333H0.5V12.8L6.94 12.8L4.07333 9.93333L5.02 9L9.5 13.4667ZM29.5 5H26.5V6H29.5V5ZM28.5 4V3H27.5V4H28.5ZM16.5 7H25.5H30.5H31.5V8H10.5V7H11.5H16.5ZM15.5 5H12.5V6H15.5V5ZM10.5 21V20H31.5V21H10.5ZM19.5 9L23.5 19H31.5V9H19.5ZM25.5 12H26.5V14H28.5V15H26.5V17H25.5V15H23.5V14H25.5V12ZM13.5 14H18.5V15H13.5V14Z" fill="#AF29BB"/>
</svg>
