<svg width="41" height="24" viewBox="0 0 41 24" fill="none" xmlns="http://www.w3.org/2000/svg">
    <path fill-rule="evenodd" clip-rule="evenodd" d="M13 3H14V4H13V3ZM12 4V2H15V4H16V6H25V4H26V2H29V4H30V6H31C31.5523 6 32 6.44772 32 7V8V9V19V20V21C32 21.5523 31.5523 22 31 22H10C9.44771 22 9 21.5523 9 21V20V19V13.4667V9V8V7C9 6.44772 9.44772 6 10 6H11V4H12ZM9 13.4667L4.52 17.9333L3.57333 17L6.44 14.1333H0V12.8L6.44 12.8L3.57333 9.93333L4.52 9L9 13.4667ZM29 5H26V6H29V5ZM28 4V3H27V4H28ZM16 7H25H30H31V8H10V7H11H16ZM15 5H12V6H15V5ZM10 21V20H31V21H10ZM19 9L23 19H31V9H19ZM25 12H26V14H28V15H26V17H25V15H23V14H25V12ZM13 14H18V15H13V14Z" fill="#2D7E24"/>
</svg>
