<svg width="42" height="24" viewBox="0 0 42 24" fill="none" xmlns="http://www.w3.org/2000/svg">
    <path fill-rule="evenodd" clip-rule="evenodd" d="M13.5 3H14.5V4H13.5V3ZM12.5 4V2H15.5V4H16.5V6H25.5V4H26.5V2H29.5V4H30.5V6H31.5C32.0523 6 32.5 6.44772 32.5 7V8V9V12.8L38.94 12.8L36.0733 9.93333L37.02 9L41.5 13.4667L37.02 17.9333L36.0733 17L38.94 14.1333L32.5 14.1333V19V20V21C32.5 21.5523 32.0523 22 31.5 22H10.5C9.94772 22 9.5 21.5523 9.5 21V20V19V9V8V7C9.5 6.44772 9.94772 6 10.5 6H11.5V4H12.5ZM29.5 5H26.5V6H29.5V5ZM28.5 4V3H27.5V4H28.5ZM16.5 7H25.5H30.5H31.5V8H10.5V7H11.5H16.5ZM15.5 5H12.5V6H15.5V5ZM10.5 19V9H18.5L22.5 19H10.5ZM10.5 20L10.5 21H31.5V20H10.5ZM18.5 14H13.5V15H18.5V14ZM25.5 12H26.5V14H28.5V15H26.5V17H25.5V15H23.5V14H25.5V12Z" fill="#454B52"/>
</svg>
