<svg width="32" height="24" viewBox="0 0 32 24" fill="none" xmlns="http://www.w3.org/2000/svg">
    <path fill-rule="evenodd" clip-rule="evenodd" d="M9 3H10V4H9V3ZM8 4V2H11V4H12V6H21V4H22V2H25V4H26V6H27C27.5523 6 28 6.44772 28 7V8V9V19V20V21C28 21.5523 27.5523 22 27 22H6C5.44772 22 5 21.5523 5 21V20V19V9V8V7C5 6.44772 5.44772 6 6 6H7V4H8ZM25 5H22V6H25V5ZM24 4V3H23V4H24ZM12 7H21H26H27V8H6V7H7H12ZM11 5H8V6H11V5ZM6 20L6 21H27V20H6ZM22 12H21V14H19V15H21V17H22V15H24V14H22V12ZM14 15V14H9V15H14Z" fill="#454B52"/>
</svg>
