<svg width="43" height="32" viewBox="0 0 43 32" fill="none" xmlns="http://www.w3.org/2000/svg">
    <rect x="7.16663" y="11.1665" width="29.6667" height="15" stroke="#AF29BB"/>
    <path d="M7.16663 25.8335H36.8333V28.3335C36.8333 28.6096 36.6094 28.8335 36.3333 28.8335H7.66663C7.39048 28.8335 7.16663 28.6096 7.16663 28.3335V25.8335Z" stroke="#AF29BB"/>
    <path d="M7.16663 9C7.16663 8.72386 7.39048 8.5 7.66663 8.5H36.3333C36.6094 8.5 36.8333 8.72386 36.8333 9V11.5H7.16663V9Z" stroke="#AF29BB"/>
    <rect x="28" y="16" width="1.33333" height="6.66667" fill="#AF29BB"/>
    <rect x="12" y="18.6665" width="6.66667" height="1.33333" fill="#AF29BB"/>
    <rect x="25.3334" y="18.6665" width="6.66667" height="1.33333" fill="#AF29BB"/>
    <rect x="9.83337" y="5.8335" width="5.66667" height="3" stroke="#AF29BB"/>
    <rect x="11.1666" y="3.1665" width="3" height="3" stroke="#AF29BB"/>
    <rect x="28.5" y="5.8335" width="5.66667" height="3" stroke="#AF29BB"/>
    <rect x="29.8334" y="3.1665" width="3" height="3" stroke="#AF29BB"/>
</svg>
