<svg width="32" height="32" viewBox="0 0 32 32" fill="none" xmlns="http://www.w3.org/2000/svg">
    <path d="M24 26L24 23L30 23L30 21L24 21L24 11L30 11L30 9L24 9L24 6C24 5.20435 23.6839 4.44129 23.1213 3.87868C22.5587 3.31607 21.7956 3 21 3L20 3C19.2044 3 18.4413 3.31607 17.8787 3.87868C17.3161 4.44129 17 5.20435 17 6L16 6C13.5123 5.98753 11.1093 6.90275 9.26024 8.56693C7.41115 10.2311 6.24874 12.5248 6 15L0.999999 15L0.999999 17L6 17C6.24874 19.4752 7.41115 21.7689 9.26024 23.4331C11.1093 25.0972 13.5123 26.0125 16 26L17 26C17 26.7956 17.3161 27.5587 17.8787 28.1213C18.4413 28.6839 19.2043 29 20 29L21 29C21.7956 29 22.5587 28.6839 23.1213 28.1213C23.6839 27.5587 24 26.7956 24 26ZM16 24C13.8783 24 11.8434 23.1571 10.3431 21.6569C8.84285 20.1566 8 18.1217 8 16C8 13.8783 8.84285 11.8434 10.3431 10.3431C11.8434 8.84285 13.8783 8 16 8L17 8L17 24L16 24ZM20 27C19.7348 27 19.4804 26.8946 19.2929 26.7071C19.1054 26.5196 19 26.2652 19 26L19 6C19 5.73478 19.1054 5.48043 19.2929 5.29289C19.4804 5.10536 19.7348 5 20 5L21 5C21.2652 5 21.5196 5.10536 21.7071 5.29289C21.8946 5.48043 22 5.73478 22 6L22 26C22 26.2652 21.8946 26.5196 21.7071 26.7071C21.5196 26.8946 21.2652 27 21 27L20 27Z" fill="#AF29BB"/>
</svg>
