<svg width="29" height="26" viewBox="0 0 29 26" fill="none" xmlns="http://www.w3.org/2000/svg">
    <path d="M23 23L23 20L29 20L29 18L23 18L23 8L29 8L29 6L23 6L23 3C23 2.20435 22.6839 1.44129 22.1213 0.878679C21.5587 0.31607 20.7956 -3.58624e-07 20 -3.93402e-07L19 -4.37114e-07C18.2044 -4.71893e-07 17.4413 0.31607 16.8787 0.878679C16.3161 1.44129 16 2.20435 16 3L15 3C12.5123 2.98753 10.1093 3.90275 8.26024 5.56693C6.41115 7.23112 5.24874 9.52477 5 12L-5.24537e-07 12L-6.11959e-07 14L5 14C5.24874 16.4752 6.41115 18.7689 8.26024 20.4331C10.1093 22.0972 12.5123 23.0125 15 23L16 23C16 23.7956 16.3161 24.5587 16.8787 25.1213C17.4413 25.6839 18.2043 26 19 26L20 26C20.7956 26 21.5587 25.6839 22.1213 25.1213C22.6839 24.5587 23 23.7956 23 23ZM15 21C12.8783 21 10.8434 20.1571 9.34314 18.6569C7.84285 17.1566 7 15.1217 7 13C7 10.8783 7.84285 8.84344 9.34315 7.34314C10.8434 5.84285 12.8783 5 15 5L16 5L16 21L15 21ZM19 24C18.7348 24 18.4804 23.8946 18.2929 23.7071C18.1054 23.5196 18 23.2652 18 23L18 3C18 2.73478 18.1054 2.48043 18.2929 2.29289C18.4804 2.10536 18.7348 2 19 2L20 2C20.2652 2 20.5196 2.10536 20.7071 2.29289C20.8946 2.48043 21 2.73478 21 3L21 23C21 23.2652 20.8946 23.5196 20.7071 23.7071C20.5196 23.8946 20.2652 24 20 24L19 24Z" fill="#AF29BB"/>
</svg>
