<svg width="21" height="21" viewBox="0 0 21 21" fill="none" xmlns="http://www.w3.org/2000/svg">
<path d="M3.87345 17.9075C3.85778 17.8945 3.86574 17.8789 3.88641 17.8892C4.98326 18.505 6.92575 19.1964 10.0026 19.2038C13.5427 19.2124 15.7939 18.0674 16.5842 17.5424C16.605 17.5295 16.6153 17.5425 16.5942 17.561C14.8325 19.0975 12.5268 20.0302 10.0006 20.0241C7.69168 20.0185 5.56568 19.2245 3.87345 17.9075ZM10.6829 18.4349C13.1437 18.4409 15.8496 17.7766 17.4699 16.4519C17.9134 16.0914 18.3364 15.6102 18.7156 14.9639C18.9339 14.5922 19.1473 14.15 19.3214 13.7153C19.3292 13.6944 19.3161 13.684 19.3003 13.7074C17.7908 15.9181 13.4322 17.2884 8.93526 17.2775C5.75666 17.2698 2.33913 16.245 1.00481 14.2998C0.991655 14.2816 0.978442 14.2895 0.986308 14.3104C2.22753 16.9653 6.00804 18.4236 10.6829 18.4349ZM8.00506 14.0284C2.88716 14.0161 0.479325 11.6258 0.0456231 9.99738C0.0404031 9.97348 0.0246956 9.97886 0.0246445 9.99997C0.0233202 10.5476 0.0766093 11.2551 0.169919 11.7245C0.213951 11.9527 0.399054 12.312 0.670722 12.5983C1.90718 13.8934 4.99251 15.7116 10.3435 15.7245C17.634 15.7422 19.3065 13.317 19.6489 12.5185C19.894 11.9479 20.0225 10.9156 20.0246 10.0483C20.0251 9.83848 20.0201 9.67083 20.0126 9.50581C20.0126 9.47942 19.9974 9.47702 19.9919 9.50298C19.6228 11.4572 13.3875 14.0415 8.00506 14.0284ZM0.999183 5.71232C0.704582 6.29355 0.377207 7.27526 0.279172 7.78336C0.236425 8.00103 0.254365 8.10566 0.330083 8.26848C0.940544 9.57232 4.03799 11.6632 11.276 11.6807C15.6913 11.6913 19.1243 10.6146 19.6847 8.63515C19.7879 8.27082 19.7941 7.88569 19.6641 7.36663C19.5186 6.78683 19.2454 6.11033 19.0134 5.63546C19.0056 5.61961 18.9924 5.62222 18.9948 5.64042C19.0751 8.23784 11.8305 9.89477 8.17744 9.88594C4.22037 9.87637 0.922532 8.29089 0.927348 6.29909C0.927811 6.10784 0.967579 5.91668 1.01778 5.71764C1.02283 5.69946 1.00714 5.6965 0.999183 5.71232ZM16.6466 2.56098C16.6882 2.62664 16.7092 2.69738 16.7089 2.79169C16.7062 3.90293 13.3025 5.86012 7.8911 5.84704C3.91555 5.83742 3.1751 4.36021 3.17737 3.42188C3.17818 3.08647 3.30734 2.74358 3.59138 2.39593C3.60712 2.37486 3.59395 2.36691 3.57571 2.3827C3.05841 2.81895 2.58277 3.31044 2.16496 3.84165C1.96519 4.0927 1.84131 4.31518 1.84099 4.44865C1.83629 6.39309 6.70689 7.81473 11.2642 7.82576C16.1201 7.8375 18.2911 6.25733 18.2945 4.8633C18.2957 4.36525 18.1026 4.07395 17.6084 3.50928C17.2872 3.1417 16.9837 2.84235 16.6623 2.54782C16.6466 2.53487 16.6359 2.54526 16.6466 2.56098ZM15.1605 1.44641C13.6639 0.544039 11.9252 0.0287214 10.0489 0.0241839C8.1595 0.0196146 6.36558 0.544582 4.85919 1.4633C4.40769 1.73985 4.15298 1.96215 4.15229 2.24785C4.15025 3.09173 6.11875 4.00316 9.61457 4.01162C13.0739 4.01998 15.7595 3.03314 15.7618 2.07675C15.7623 1.8487 15.5635 1.68836 15.1605 1.44641Z" fill="#009FDB"/>
</svg>
