<svg width="27" height="31" viewBox="0 0 27 31" fill="none" xmlns="http://www.w3.org/2000/svg">
    <path fill-rule="evenodd" clip-rule="evenodd" d="M23.0599 7.69L24.7699 5.69L23.2299 4.36L21.5199 6.41C19.6004 5.04754 17.3469 4.23186 14.9999 4.05V2H16.9999V0H10.9999V2H12.9999V4.05C6.89265 4.52055 1.94239 9.19056 1.11713 15.2601C0.291861 21.3297 3.81551 27.1519 9.57546 29.236C15.3354 31.3201 21.7688 29.1006 25.0184 23.9083C28.268 18.7159 27.4521 11.9596 23.0599 7.69ZM13.9999 28C7.92482 28 2.99995 23.0751 2.99995 17C2.99995 10.9249 7.92482 6 13.9999 6C20.0751 6 24.9999 10.9249 24.9999 17C24.9999 19.9174 23.841 22.7153 21.7781 24.7782C19.7152 26.8411 16.9173 28 13.9999 28ZM15.9999 17C15.9999 18.1046 15.1045 19 13.9999 19C12.8954 19 11.9999 18.1046 11.9999 17C12.0022 16.8278 12.0257 16.6565 12.0699 16.49L7.23995 11.65L8.64995 10.24L13.4899 15.07C13.6564 15.0257 13.8277 15.0022 13.9999 15C15.1045 15 15.9999 15.8954 15.9999 17Z" fill="#009FDB"/>
</svg>
