<svg width="68" height="130" viewBox="0 0 68 130" fill="none" xmlns="http://www.w3.org/2000/svg">
<g clip-path="url(#clip0_977_9092)">
<g opacity="0.3" filter="url(#filter0_d_977_9092)">
<path d="M67.2862 49.9112C67.2868 49.092 66.9839 48.3016 66.436 47.6926C65.888 47.0836 65.1339 46.6992 64.3192 46.6136L62.4067 46.409C62.2257 36.9648 62.0132 20.2372 61.8007 10.549C61.8007 6.65321 57.9286 2.06489 52.6477 1.20703C42.7278 -0.402344 32.6135 -0.402344 22.6937 1.20703C17.7197 1.99405 13.9814 6.07869 13.5328 9.81704C12.1821 14.1484 11.4949 18.6593 11.4944 23.1964V29.225C11.5085 33.1622 12.0377 37.0807 13.0684 40.8807C13.0684 42.9899 13.0133 44.9496 12.9818 46.6574L10.9671 46.87C10.1523 46.9556 9.39821 47.34 8.85027 47.949C8.30232 48.558 7.99941 49.3484 8 50.1676V50.5768L12.9267 50.0574C12.4703 78.0517 10.8884 98.1286 12.0689 111.886C12.0978 114.353 13.0273 116.724 14.6827 118.553C16.338 120.382 18.6049 121.544 21.0567 121.818C32.1 123.069 43.2493 123.069 54.2925 121.818C56.7457 121.545 59.0145 120.385 60.6715 118.556C62.3284 116.726 63.2591 114.354 63.2882 111.886C64.6104 98.1365 63.0048 77.7875 62.5012 49.8011L67.3177 50.3048L67.2862 49.9112Z" fill="#314754"/>
</g>
<path d="M54.1098 121.791C43.0665 123.043 31.9172 123.043 20.8739 121.791C18.4221 121.517 16.1552 120.356 14.4999 118.526C12.8446 116.697 11.915 114.326 11.8861 111.859C10.257 92.9705 12.5708 50.3061 13.3421 10.5773C13.3421 6.64223 17.2772 2.07752 22.5424 1.22754C32.4622 -0.381836 42.5766 -0.381836 52.4964 1.22754C57.7773 2.08539 61.6494 6.67372 61.6494 10.5695C62.5073 50.3219 64.9155 92.9862 63.1054 111.89C63.0687 114.353 62.1346 116.718 60.4784 118.541C58.8221 120.363 56.5576 121.519 54.1098 121.791V121.791Z" fill="#CE7500"/>
<path d="M37.4958 116.18C31.998 116.189 26.5039 115.892 21.0392 115.29C17.2457 114.865 14.7902 111.528 14.7902 106.798L14.7902 37.8789C14.0836 28.5477 14.0836 19.1765 14.7902 9.84528C14.7902 6.6972 18.0721 5.59537 22.7785 4.83983C27.6999 4.04836 32.6764 3.64834 37.661 3.64355C42.5561 3.64435 47.4434 4.03649 52.276 4.81622C56.9509 5.60324 60.2092 6.68145 60.2092 9.81379C60.9502 19.1542 60.9502 28.5386 60.2092 37.8789L60.2092 106.767C60.2092 111.489 57.7615 114.834 53.9681 115.259C48.4987 115.872 42.9994 116.179 37.4958 116.18Z" fill="#E59D45"/>
<path d="M16.7653 42.318C16.515 42.3171 16.2726 42.2304 16.0785 42.0724C15.8844 41.9143 15.7503 41.6944 15.6988 41.4495C15.6472 41.2045 15.6812 40.9493 15.7951 40.7263C15.909 40.5034 16.0959 40.3263 16.3246 40.2246C28.7989 34.7154 45.4444 34.621 58.745 40.075C58.9894 40.2004 59.1777 40.4132 59.2725 40.6711C59.3672 40.929 59.3615 41.213 59.2564 41.4669C59.1513 41.7207 58.9545 41.9257 58.7052 42.0411C58.4559 42.1565 58.1723 42.1739 57.9108 42.0898C45.1532 36.8561 29.1688 36.9112 17.214 42.2236C17.0723 42.2849 16.9197 42.317 16.7653 42.318V42.318Z" fill="#CE7500"/>
<path d="M14.7583 42.2473L14.7583 82.3853L16.8439 100.487C17.0844 102.691 17.9997 104.766 19.4648 106.43C20.9299 108.094 22.8732 109.264 25.0289 109.782C33.1935 111.863 41.7499 111.863 49.9145 109.782C52.0822 109.271 54.0393 108.103 55.5184 106.438C56.9975 104.773 57.9264 102.692 58.1782 100.479L60.2717 81.9918L60.2717 42.2473C45.0874 35.4579 29.9163 35.4579 14.7583 42.2473Z" fill="#33435B"/>
<path d="M60.0198 83.8173L60.2245 81.9992V76.9072H14.7583V82.3613L14.9236 83.8173H60.0198Z" fill="#CE7500"/>
<path d="M54.3219 58.0034C55.6992 51.4317 56.982 48.8661 59.5241 41.956C52.5397 38.8245 44.9765 37.1918 37.3223 37.1631L37.3223 111.355C41.3653 111.395 45.3989 110.959 49.3401 110.057C51.5532 109.554 53.5089 108.265 54.8446 106.43C56.1803 104.595 56.8055 102.338 56.6043 100.077L55.1562 84.2741C53.9284 79.8747 54.2275 58.4598 54.3219 58.0034Z" fill="#2E6578"/>
<path d="M22.0386 60.6087C21.8893 60.6071 21.7441 60.5604 21.6219 60.4747C21.4997 60.389 21.4062 60.2684 21.3538 60.1286L14.8688 42.3734C14.8246 42.1975 14.8472 42.0115 14.9323 41.8514C15.0174 41.6912 15.1589 41.5684 15.3294 41.5066C15.5 41.4449 15.6873 41.4486 15.8552 41.5172C16.0231 41.5857 16.1596 41.7142 16.2382 41.8776L22.7233 59.6328C22.7559 59.7222 22.7705 59.8171 22.7664 59.9122C22.7623 60.0073 22.7395 60.1006 22.6993 60.1868C22.6591 60.2731 22.6023 60.3506 22.5322 60.4148C22.462 60.4791 22.3798 60.5289 22.2904 60.5615C22.21 60.5922 22.1247 60.6082 22.0386 60.6087V60.6087Z" fill="#CE7500"/>
<path d="M52.9528 60.6089C52.8666 60.6091 52.7812 60.5931 52.701 60.5616C52.6106 60.5292 52.5276 60.4791 52.4568 60.4142C52.386 60.3494 52.3288 60.2711 52.2885 60.184C52.2482 60.0968 52.2257 60.0025 52.2222 59.9066C52.2187 59.8106 52.2343 59.7149 52.2681 59.6251L58.7453 41.9643C58.7769 41.8743 58.8262 41.7914 58.8903 41.7207C58.9544 41.6499 59.032 41.5927 59.1185 41.5524C59.205 41.5121 59.2987 41.4894 59.3941 41.4859C59.4895 41.4823 59.5847 41.4978 59.674 41.5315C59.8552 41.5988 60.0024 41.7351 60.0835 41.9105C60.1646 42.086 60.173 42.2864 60.1068 42.468L53.6297 60.1288C53.5806 60.2692 53.4891 60.3908 53.3679 60.4768C53.2466 60.5629 53.1015 60.609 52.9528 60.6089V60.6089Z" fill="#CE7500"/>
<path d="M37.4798 86.6114C31.5257 86.5955 25.5991 85.8018 19.8506 84.2503L19.8506 57.1689C19.8518 56.5511 20.0458 55.949 20.4055 55.4468C20.7653 54.9445 21.2729 54.5671 21.8575 54.3671C31.9767 50.8099 43.0065 50.8099 53.1258 54.3671C53.7125 54.5647 54.2225 54.9413 54.5839 55.4439C54.9453 55.9465 55.14 56.5499 55.1406 57.1689L55.1406 84.2503C49.3809 85.7998 43.4442 86.5934 37.4798 86.6114Z" fill="#E59D45"/>
<path d="M50.7724 67.6367V60.7267C50.7737 60.4144 50.6741 60.11 50.4883 59.8589C50.3025 59.6079 50.0405 59.4236 49.7414 59.3337C41.7573 56.9096 33.2334 56.9096 25.2493 59.3337C24.9494 59.4233 24.6864 59.6073 24.4993 59.8582C24.3121 60.1091 24.2109 60.4137 24.2104 60.7267V67.6367C24.2104 68.0229 24.3638 68.3932 24.6369 68.6663C24.91 68.9393 25.2803 69.0927 25.6664 69.0927H49.3243C49.5151 69.0927 49.7041 69.055 49.8803 68.9817C50.0565 68.9085 50.2165 68.8011 50.351 68.6658C50.4856 68.5305 50.5921 68.3699 50.6644 68.1933C50.7367 68.0167 50.7734 67.8276 50.7724 67.6367Z" fill="#33435B"/>
<path d="M49.7416 59.3336C45.7669 58.1478 41.6433 57.5356 37.4956 57.5156H37.2358V69.0848H49.3245C49.5153 69.0848 49.7043 69.0471 49.8805 68.9738C50.0567 68.9006 50.2167 68.7932 50.3512 68.6579C50.4858 68.5226 50.5923 68.362 50.6646 68.1854C50.7369 68.0088 50.7736 67.8197 50.7726 67.6288V60.7188C50.7722 60.4078 50.6718 60.1052 50.4861 59.8557C50.3004 59.6063 50.0394 59.4232 49.7416 59.3336Z" fill="#2E6578"/>
<path d="M13.9163 39.8547V44.2148C12.2189 39.4118 11.3487 34.3556 11.3428 29.2614V23.2092C11.3475 18.115 12.2177 13.0586 13.9163 8.25586V8.25586L13.9163 39.8547Z" fill="#CE7500"/>
<path d="M61.1768 39.8547V44.2148C62.8775 39.4126 63.7478 34.3559 63.7503 29.2614V23.2092C63.7496 18.1147 62.8792 13.0576 61.1768 8.25586L61.1768 39.8547Z" fill="#CE7500"/>
<path d="M14.7584 49.8186L7.8169 50.5505V50.1727C7.8163 49.3535 8.11921 48.5631 8.66716 47.9541C9.21511 47.3451 9.96923 46.9607 10.784 46.8751L14.7191 46.458L14.7584 49.8186Z" fill="#E59D45"/>
<path d="M60.1934 49.8186L67.1349 50.5505V50.1727C67.1355 49.3535 66.8326 48.5631 66.2846 47.9541C65.7367 47.3451 64.9825 46.9607 64.1678 46.8751L60.1934 46.458V49.8186Z" fill="#E59D45"/>
<path d="M17.0329 12.5928C16.9315 12.5947 16.8331 12.5582 16.7575 12.4905C16.7148 12.4517 16.6808 12.4042 16.6578 12.3513C16.6347 12.2984 16.6231 12.2413 16.6237 12.1836V5.31286C16.621 5.21276 16.6559 5.11529 16.7214 5.03957C16.7869 4.96386 16.8784 4.91537 16.9778 4.90362L24.9267 3.9041C24.9843 3.89741 25.0427 3.90303 25.0979 3.92058C25.1531 3.93813 25.204 3.96721 25.2472 4.0059C25.2903 4.04459 25.3248 4.09201 25.3482 4.14501C25.3717 4.19802 25.3836 4.2554 25.3832 4.31336V11.184C25.3841 11.2837 25.3486 11.3802 25.2834 11.4556C25.2182 11.5309 25.1278 11.5799 25.0291 11.5933L17.0801 12.5928H17.0329ZM17.4422 5.66703V11.7192L24.5726 10.822V4.76983L17.4422 5.66703Z" fill="#CE7500"/>
<path d="M58.0683 12.5919H58.0132L50.0643 11.5924C49.9663 11.5774 49.8767 11.528 49.8118 11.453C49.7469 11.378 49.7109 11.2823 49.7101 11.1831V4.32028C49.7083 4.26163 49.7201 4.20335 49.7447 4.15008C49.7693 4.0968 49.806 4.04999 49.8518 4.01334C49.8937 3.97445 49.9436 3.94515 49.9979 3.92748C50.0523 3.90981 50.1099 3.90419 50.1666 3.91103L58.1155 4.91054C58.2157 4.92218 58.308 4.97038 58.3748 5.04591C58.4417 5.12144 58.4782 5.21897 58.4776 5.3198V12.1905C58.4767 12.2487 58.4636 12.3061 58.4392 12.3589C58.4148 12.4118 58.3796 12.459 58.3359 12.4974C58.2624 12.5625 58.1664 12.5963 58.0683 12.5919ZM50.5286 10.8211L57.659 11.7183V5.66609L50.5286 4.76889V10.8211Z" fill="#CE7500"/>
<path d="M37.3222 118.171C30.3845 118.179 23.4625 117.51 16.655 116.172C16.4785 116.122 16.3271 116.008 16.2307 115.852C16.1344 115.696 16.1001 115.509 16.1348 115.329C16.1694 115.149 16.2704 114.989 16.4178 114.879C16.5651 114.77 16.7481 114.72 16.9305 114.74C30.5665 117.376 44.5815 117.376 58.2176 114.74C58.3156 114.711 58.4185 114.704 58.5195 114.718C58.6206 114.732 58.7177 114.766 58.8045 114.82C58.8913 114.874 58.966 114.945 59.0237 115.029C59.0814 115.113 59.1209 115.208 59.1396 115.308C59.1584 115.409 59.1559 115.512 59.1325 115.611C59.109 115.71 59.0651 115.804 59.0035 115.885C58.9418 115.966 58.8639 116.034 58.7746 116.083C58.6854 116.133 58.5868 116.163 58.4852 116.172C51.5083 117.495 44.4233 118.164 37.3222 118.171Z" fill="#9A0000"/>
<path d="M23.3844 118.73H23.1955C20.9682 118.439 18.7095 118.061 16.4901 117.628C16.1194 117.546 15.7956 117.322 15.5878 117.004C15.3799 116.686 15.3043 116.3 15.3772 115.927C15.4501 115.555 15.6656 115.225 15.9779 115.009C16.2902 114.794 16.6745 114.708 17.0488 114.771C19.2132 115.196 21.4089 115.558 23.5732 115.85C23.9351 115.903 24.2635 116.09 24.4934 116.375C24.7233 116.659 24.8377 117.02 24.8139 117.385C24.7901 117.75 24.6298 118.092 24.365 118.345C24.1001 118.597 23.75 118.74 23.3844 118.746V118.73Z" fill="#9A0000"/>
<path d="M52.3939 118.604C52.0277 118.6 51.6764 118.458 51.4102 118.207C51.1439 117.955 50.9823 117.613 50.9575 117.247C50.9326 116.882 51.0464 116.52 51.2762 116.235C51.506 115.95 51.8348 115.762 52.1972 115.708C54.1332 115.441 56.1323 115.126 58.0605 114.756C58.2507 114.722 58.4456 114.726 58.6341 114.768C58.8227 114.81 59.0011 114.888 59.1594 114.999C59.3176 115.11 59.4525 115.251 59.5563 115.413C59.6601 115.576 59.7308 115.758 59.7644 115.948C59.798 116.138 59.7938 116.333 59.752 116.522C59.7103 116.71 59.6318 116.889 59.5211 117.047C59.4104 117.205 59.2696 117.34 59.1067 117.444C58.9439 117.548 58.7622 117.618 58.572 117.652C56.5651 118.03 54.5504 118.36 52.5671 118.628L52.3939 118.604Z" fill="#9A0000"/>
</g>
<defs>
<filter id="filter0_d_977_9092" x="3" y="0" width="64.3179" height="128.757" filterUnits="userSpaceOnUse" color-interpolation-filters="sRGB">
<feFlood flood-opacity="0" result="BackgroundImageFix"/>
<feColorMatrix in="SourceAlpha" type="matrix" values="0 0 0 0 0 0 0 0 0 0 0 0 0 0 0 0 0 0 127 0" result="hardAlpha"/>
<feOffset dx="-5" dy="6"/>
<feComposite in2="hardAlpha" operator="out"/>
<feColorMatrix type="matrix" values="0 0 0 0 0 0 0 0 0 0 0 0 0 0 0 0 0 0 0.25 0"/>
<feBlend mode="normal" in2="BackgroundImageFix" result="effect1_dropShadow_977_9092"/>
<feBlend mode="normal" in="SourceGraphic" in2="effect1_dropShadow_977_9092" result="shape"/>
</filter>
<clipPath id="clip0_977_9092">
<rect width="66.5898" height="130" fill="white" transform="translate(0.544922)"/>
</clipPath>
</defs>
</svg>
