<svg width="70" height="130" viewBox="0 0 70 130" fill="none" xmlns="http://www.w3.org/2000/svg">
<g clip-path="url(#clip0_977_8972)">
<g opacity="0.3" filter="url(#filter0_d_977_8972)">
<path d="M69.6104 41.3188L63.9319 40.7287C64.1951 55.882 64.3466 75.071 64.2031 87.0581L65.2877 90.1047V107.427L62.8951 114.278C61.946 118.314 59.1307 120.826 55.6055 121.217C44.4146 122.485 33.1161 122.485 21.9251 121.217C18.408 120.826 15.6006 118.33 14.6436 114.302L12.211 107.427V90.1047L13.3914 86.763C13.2798 74.7998 13.3914 55.9937 13.6466 40.9998L8 41.59V41.2072C7.9994 40.377 8.30636 39.5761 8.86163 38.9589C9.41691 38.3418 10.1811 37.9522 11.0068 37.8655L12.873 37.6741C13.1421 37.6456 13.4141 37.6756 13.6706 37.7618L13.7583 37.4348L12.1632 32.9925V15.6698L14.3884 9.37713C15.162 5.76425 18.8466 2.02375 23.5841 1.22621C33.6362 -0.408736 43.8865 -0.408736 53.9386 1.22621C58.7239 2.02375 62.3607 5.80412 63.0785 9.42498L65.2877 15.6698V32.9925L63.7724 37.2673L63.8681 37.5066C64.1466 37.4078 64.4435 37.3724 64.7374 37.4029L66.6037 37.5943C67.4286 37.6828 68.1918 38.0728 68.7467 38.6896C69.3017 39.3064 69.6093 40.1064 69.6104 40.936V41.3188Z" fill="#314754"/>
</g>
<path d="M55.3177 121.394C44.1267 122.662 32.8283 122.662 21.6373 121.394C17.2827 120.908 13.9968 117.183 13.9968 111.329C12.3539 92.1881 13.1993 51.1624 13.9968 10.9022C13.9968 6.91449 17.9846 2.28873 23.3281 1.42738C33.3803 -0.207564 43.6306 -0.207564 53.6827 1.42738C59.0343 2.28873 62.9582 6.93842 62.9582 10.8863C63.8275 51.1703 64.7925 92.1961 62.9582 111.377C62.9582 117.183 59.6723 120.908 55.3177 121.394Z" fill="#8E8C74"/>
<path d="M38.4814 118.658C33.1509 118.654 27.8251 118.342 22.5305 117.725C18.6863 117.287 16.206 113.913 16.206 109.112L15.4642 101.934V42.2695C15.199 32.7909 15.4466 23.3048 16.206 13.8529C16.206 10.6627 19.5237 6.60324 24.2931 5.87747C29.0356 5.06873 33.8378 4.66055 38.6489 4.65723C43.3638 4.65737 48.0703 5.05758 52.7176 5.85355C57.455 6.65109 60.7568 10.6867 60.7568 13.829C61.6421 21.31 61.7697 33.3928 61.4906 42.2775V101.974L60.693 109.152C60.693 113.937 58.2047 117.327 54.3605 117.765C49.0889 118.366 43.7872 118.665 38.4814 118.658V118.658Z" fill="#ABAE8B"/>
<path d="M15.4404 35.6268V94.5814C30.405 99.498 46.5501 99.498 61.5147 94.5814V35.6268C51.5374 25.6415 25.7527 25.3066 15.4404 35.6268Z" fill="#33435B"/>
<path d="M61.4511 88.3837C61.0254 88.2739 60.6093 88.1299 60.2069 87.953H58.9308V87.2432C53.4517 83.3831 55.3499 80.1769 54.8953 74.5622C54.4247 68.78 53.6112 60.9481 55.3738 55.2935C56.4345 51.872 60.4063 34.6131 60.4063 34.6131C55.4057 30.4101 47.4063 28.1849 39.2793 28.0254V98.2493C46.8334 98.1503 54.3294 96.9135 61.5149 94.5806V88.3916L61.4511 88.3837Z" fill="#2E6578"/>
<path d="M22.8178 60.8609C22.6556 60.8604 22.4979 60.8072 22.3685 60.7094C22.2391 60.6116 22.1449 60.4745 22.1 60.3186L15.3767 35.2039C15.3275 35.0147 15.3541 34.8137 15.451 34.6439C15.5478 34.474 15.7072 34.3487 15.8951 34.2947C15.9888 34.2695 16.0866 34.2631 16.1829 34.276C16.2791 34.2889 16.3718 34.3207 16.4556 34.3697C16.5394 34.4186 16.6127 34.4838 16.6712 34.5612C16.7297 34.6387 16.7722 34.727 16.7963 34.8211L23.5276 59.9358C23.5529 60.029 23.5596 60.1263 23.5472 60.2221C23.5349 60.3179 23.5037 60.4103 23.4556 60.4941C23.4074 60.5778 23.3432 60.6512 23.2666 60.71C23.19 60.7689 23.1025 60.812 23.0092 60.837L22.8178 60.8609Z" fill="#8E8C74"/>
<path d="M54.1373 60.8603C54.0738 60.8679 54.0095 60.8679 53.9459 60.8603C53.8526 60.8353 53.7651 60.7921 53.6885 60.7333C53.6119 60.6744 53.5477 60.601 53.4996 60.5173C53.4514 60.4336 53.4203 60.3412 53.4079 60.2453C53.3955 60.1495 53.4022 60.0522 53.4275 59.959L60.1588 34.8443C60.2128 34.6564 60.3381 34.497 60.508 34.4002C60.6778 34.3033 60.8788 34.2767 61.068 34.3259C61.1613 34.3509 61.2488 34.394 61.3254 34.4529C61.402 34.5117 61.4662 34.5851 61.5144 34.6688C61.5626 34.7526 61.5937 34.845 61.606 34.9408C61.6184 35.0366 61.6117 35.1339 61.5864 35.2271L54.8551 60.3419C54.8071 60.494 54.7114 60.6265 54.5821 60.7199C54.4528 60.8133 54.2968 60.8625 54.1373 60.8603V60.8603Z" fill="#8E8C74"/>
<path d="M61.5149 94.5813L50.8198 78.9973L53.8665 70.3838L61.5149 80.2734V94.5813Z" fill="#8E8C74"/>
<path d="M15.249 94.5813L25.9441 78.9973L22.8975 70.3838L15.257 80.2734L15.249 94.5813Z" fill="#8E8C74"/>
<path d="M38.4577 87.9535C32.9526 87.9429 27.4687 87.2708 22.1239 85.9517C21.6869 85.8427 21.2992 85.59 21.0229 85.2342C20.7467 84.8784 20.598 84.4402 20.6006 83.9897V51.1309C20.6011 50.3939 20.832 49.6755 21.2611 49.0763C21.6901 48.4771 22.2957 48.027 22.9933 47.7891C33.0287 44.3437 43.9265 44.3437 53.962 47.7891C54.6595 48.027 55.2651 48.4771 55.6942 49.0763C56.1232 49.6755 56.3541 50.3939 56.3546 51.1309V83.9897C56.3559 84.4398 56.2066 84.8774 55.9306 85.2329C55.6546 85.5884 55.2677 85.8414 54.8313 85.9517C49.4722 87.2665 43.9757 87.9385 38.4577 87.9535Z" fill="#ABAE8B"/>
<path d="M14.5313 40.5389L11.9233 33.1696V15.8469L14.5313 8.47754V40.5389Z" fill="#8E8C74"/>
<path d="M62.4238 40.5389L65.0317 33.1696V15.8469L62.4238 8.47754V40.5389Z" fill="#8E8C74"/>
<path d="M14.5313 114.974L11.9233 107.605V90.2824L14.5313 82.9131V114.974Z" fill="#8E8C74"/>
<path d="M62.4238 114.974L65.0317 107.605V90.2824L62.4238 82.9131V114.974Z" fill="#8E8C74"/>
<path d="M23.2324 119.552C23.1846 120.007 22.1478 120.254 20.9355 120.111C19.7232 119.967 18.7742 119.481 18.83 119.034C18.8858 118.587 19.9146 118.324 21.1269 118.476C22.3392 118.627 23.2883 119.098 23.2324 119.552Z" fill="#7E102F"/>
<path d="M28.217 120.07C28.217 120.525 27.1642 120.82 25.944 120.724C24.7237 120.628 23.7587 120.19 23.7986 119.735C23.8384 119.281 24.8513 118.993 26.0716 119.081C27.2918 119.169 28.2489 119.631 28.217 120.07Z" fill="#7E102F"/>
<path d="M53.7226 119.552C53.7784 120.007 54.8072 120.254 56.0195 120.111C57.2318 119.967 58.1809 119.481 58.125 119.034C58.0692 118.587 57.0404 118.324 55.8281 118.476C54.6158 118.627 53.6667 119.098 53.7226 119.552Z" fill="#7E102F"/>
<path d="M48.7381 120.07C48.7381 120.525 49.7909 120.82 51.0111 120.724C52.2314 120.628 53.1964 120.19 53.1565 119.735C53.1166 119.281 52.1037 118.993 50.8835 119.081C49.6632 119.169 48.7062 119.631 48.7381 120.07Z" fill="#7E102F"/>
<path d="M17.4344 8.42978C17.2589 8.43106 17.0889 8.36873 16.9559 8.25432C16.8818 8.19215 16.8208 8.11596 16.7762 8.03013C16.7317 7.94429 16.7046 7.8505 16.6965 7.75415C16.6883 7.6578 16.6993 7.56079 16.7287 7.46869C16.7582 7.3766 16.8056 7.29123 16.8682 7.21751C18.9099 4.82487 22.3553 3.42119 27.1007 3.06229C27.2958 3.04896 27.4883 3.11237 27.6373 3.23902C27.7863 3.36567 27.88 3.54551 27.8982 3.74021C27.9137 3.93577 27.851 4.12949 27.7239 4.27896C27.5969 4.42844 27.4158 4.52149 27.2203 4.53775C22.8817 4.85677 19.7792 6.08499 18.0007 8.17456C17.9307 8.25593 17.8437 8.32095 17.7459 8.36504C17.648 8.40914 17.5417 8.43124 17.4344 8.42978Z" fill="#062A36"/>
<path d="M19.3485 5.19238C18.4153 5.72564 17.5771 6.41021 16.8682 7.21815C16.8056 7.29187 16.7582 7.37724 16.7287 7.46934C16.6993 7.56143 16.6883 7.65845 16.6965 7.7548C16.7046 7.85115 16.7317 7.94494 16.7762 8.03077C16.8208 8.11661 16.8818 8.1928 16.9559 8.25496C17.0889 8.36937 17.2589 8.43171 17.4344 8.43042C17.5404 8.43072 17.6452 8.40806 17.7415 8.364C17.8379 8.31995 17.9236 8.25554 17.9927 8.17521C18.3943 7.7134 18.8494 7.30109 19.3485 6.94699V5.19238Z" fill="#FF8327"/>
<path d="M59.7681 8.42999C59.9088 8.43039 60.0465 8.39037 60.1651 8.3147C60.2836 8.23903 60.3778 8.1309 60.4366 8.00318C60.4955 7.87545 60.5163 7.73352 60.4968 7.59427C60.4773 7.45502 60.4181 7.32432 60.3264 7.21772C58.2847 4.82508 54.8473 3.4214 50.1019 3.06251C49.9143 3.06169 49.7334 3.13198 49.5955 3.25922C49.4577 3.38646 49.3732 3.5612 49.359 3.74825C49.3449 3.9353 49.4021 4.12076 49.5193 4.2673C49.6364 4.41383 49.8046 4.51054 49.9902 4.53797C54.3289 4.85698 57.4233 6.08521 59.2019 8.17478C59.2744 8.25303 59.3619 8.31594 59.4591 8.35977C59.5564 8.40361 59.6615 8.42749 59.7681 8.42999V8.42999Z" fill="#062A36"/>
<path d="M57.8462 5.19238C58.7824 5.72136 59.6212 6.40649 60.3266 7.21815C60.4183 7.32475 60.4774 7.45545 60.4969 7.5947C60.5165 7.73395 60.4956 7.87588 60.4368 8.00361C60.3779 8.13133 60.2837 8.23946 60.1652 8.31513C60.0467 8.3908 59.9089 8.43082 59.7683 8.43042C59.6616 8.42792 59.5565 8.40404 59.4592 8.3602C59.362 8.31636 59.2745 8.25346 59.202 8.17521C58.8023 7.71153 58.347 7.299 57.8462 6.94698V5.19238Z" fill="#FF8327"/>
<path d="M14.7388 39.1279L7.7124 39.8616V39.4788C7.7118 38.6486 8.01876 37.8476 8.57403 37.2305C9.12931 36.6134 9.89352 36.2238 10.7191 36.1371L12.5854 35.9457C12.8571 35.9165 13.132 35.945 13.392 36.0291C13.652 36.1133 13.8914 36.2513 14.0946 36.4341C14.2977 36.617 14.4601 36.8405 14.5711 37.0903C14.6821 37.34 14.7392 37.6104 14.7388 37.8837V39.1279Z" fill="#ABAE8B"/>
<path d="M62.3281 39.1279L69.3864 39.8776V39.4788C69.3852 38.6491 69.0776 37.8491 68.5227 37.2323C67.9678 36.6156 67.2046 36.2255 66.3796 36.1371L64.5134 35.9457C64.2416 35.9165 63.9668 35.945 63.7067 36.0291C63.4467 36.1133 63.2074 36.2513 63.0042 36.4341C62.8011 36.617 62.6387 36.8405 62.5277 37.0903C62.4167 37.34 62.3596 37.6104 62.36 37.8837L62.3281 39.1279Z" fill="#ABAE8B"/>
<path d="M49.0249 4.52246L50.8752 25.2507L47.5654 4.7059L49.0249 4.52246Z" fill="#8E8C74"/>
<path d="M29.5012 4.7059L26.1914 25.2507L28.0337 4.52246L29.5012 4.7059Z" fill="#8E8C74"/>
<path d="M47.3421 70.048H29.7243C29.1448 70.048 28.5889 69.8178 28.1791 69.408C27.7693 68.9982 27.5391 68.4423 27.5391 67.8628V58.4198C27.5391 57.8395 27.769 57.2828 28.1786 56.8718C28.5882 56.4607 29.144 56.2287 29.7243 56.2266H47.3421C47.9224 56.2287 48.4783 56.4607 48.8878 56.8718C49.2974 57.2828 49.5274 57.8395 49.5274 58.4198V67.8628C49.5274 68.4423 49.2972 68.9982 48.8874 69.408C48.4775 69.8178 47.9217 70.048 47.3421 70.048V70.048ZM29.7243 56.9683C29.3394 56.9683 28.9702 57.1212 28.6979 57.3934C28.4257 57.6656 28.2728 58.0348 28.2728 58.4198V67.8628C28.2749 68.2471 28.4285 68.6151 28.7003 68.8868C28.972 69.1586 29.34 69.3122 29.7243 69.3143H47.3421C47.7264 69.3122 48.0944 69.1586 48.3662 68.8868C48.638 68.6151 48.7916 68.2471 48.7937 67.8628V58.4198C48.7937 58.0348 48.6407 57.6656 48.3685 57.3934C48.0963 57.1212 47.7271 56.9683 47.3421 56.9683H29.7243Z" fill="#8E8C74"/>
</g>
<defs>
<filter id="filter0_d_977_8972" x="3" y="0" width="66.6104" height="128.168" filterUnits="userSpaceOnUse" color-interpolation-filters="sRGB">
<feFlood flood-opacity="0" result="BackgroundImageFix"/>
<feColorMatrix in="SourceAlpha" type="matrix" values="0 0 0 0 0 0 0 0 0 0 0 0 0 0 0 0 0 0 127 0" result="hardAlpha"/>
<feOffset dx="-5" dy="6"/>
<feComposite in2="hardAlpha" operator="out"/>
<feColorMatrix type="matrix" values="0 0 0 0 0 0 0 0 0 0 0 0 0 0 0 0 0 0 0.25 0"/>
<feBlend mode="normal" in2="BackgroundImageFix" result="effect1_dropShadow_977_8972"/>
<feBlend mode="normal" in="SourceGraphic" in2="effect1_dropShadow_977_8972" result="shape"/>
</filter>
<clipPath id="clip0_977_8972">
<rect width="69.3865" height="130" fill="white"/>
</clipPath>
</defs>
</svg>
