<svg width="72" height="130" viewBox="0 0 72 130" fill="none" xmlns="http://www.w3.org/2000/svg">
<g clip-path="url(#clip0_977_9114)">
<g opacity="0.3" filter="url(#filter0_d_977_9114)">
<path d="M71.284 47.4996L65.4438 46.8853C65.7141 62.4483 65.8697 83.835 65.7305 96.1544L64.3789 114.265C63.4042 118.418 60.5128 120.99 56.8923 121.399C45.4011 122.693 33.8009 122.693 22.3097 121.399C18.6975 120.99 15.8143 118.426 14.8231 114.298C14.1269 113.978 12.7672 61.9322 13.7993 46.8935L8 47.4996V47.1474C8.0012 46.2953 8.31708 45.4737 8.88702 44.8402C9.45696 44.2068 10.2408 43.8062 11.088 43.7153L13.0129 43.5188C13.2892 43.4896 13.5686 43.5203 13.832 43.6089C13.0129 41.6922 14.1023 12.5976 14.5938 9.59967C15.3637 5.88913 19.1152 2.03934 24.0217 1.253C34.3297 -0.417668 44.8396 -0.417668 55.1476 1.253C60.0622 2.07211 63.7974 5.95466 64.5345 9.67339L65.2472 38.2765C65.2881 40.0785 65.3209 41.8642 65.3536 43.6498C65.6366 43.5477 65.9392 43.5112 66.2383 43.5433L68.1632 43.7399C69.0104 43.8308 69.7943 44.2314 70.3642 44.8648C70.9341 45.4982 71.25 46.3199 71.2512 47.172L71.284 47.4996Z" fill="#314754"/>
</g>
<path d="M57.1204 121.457C45.6292 122.751 34.029 122.751 22.5378 121.457C18.0573 120.958 14.6908 117.132 14.6908 111.112C12.9953 91.4534 13.8717 52.3576 14.6908 11.001C14.6908 6.90551 18.7863 2.15471 24.2743 1.27007C34.5954 -0.409035 45.1201 -0.409035 55.4412 1.27007C60.9374 2.15471 64.9674 6.93009 64.9674 10.9928C65.8684 52.3576 66.8595 91.4698 64.9674 111.137C64.9674 117.132 61.6009 120.958 57.1204 121.457Z" fill="#A1C481"/>
<path d="M16.2065 112.627V43.208C15.9313 33.476 16.1828 23.7363 16.9601 14.0315C16.9601 10.7551 20.3757 6.57765 25.2658 5.79131C30.1371 4.96521 35.0688 4.54602 40.0097 4.53809C44.8492 4.54263 49.6797 4.95363 54.4505 5.76674C59.3159 6.58585 62.707 10.7305 62.707 13.9578C63.6244 21.641 63.7555 34.0504 63.4606 43.1752L63.4934 101.463L63.4524 112.602C63.4524 119.598 16.2065 119.598 16.2065 112.627Z" fill="#B6E586"/>
<path d="M18.9665 42.0284C18.7824 42.0294 18.601 41.985 18.4382 41.8993C18.2754 41.8136 18.1361 41.6892 18.0327 41.537C17.947 41.4146 17.8863 41.2765 17.8544 41.1305C17.8224 40.9846 17.8196 40.8338 17.8463 40.6868C17.8729 40.5397 17.9285 40.3995 18.0097 40.2741C18.0909 40.1486 18.1961 40.0406 18.3194 39.9561C29.3691 32.363 49.7484 32.2893 61.0766 39.8005C61.3013 39.9773 61.4512 40.2321 61.4967 40.5143C61.5421 40.7966 61.4797 41.0856 61.3218 41.324C61.1639 41.5623 60.9222 41.7326 60.6446 41.8009C60.3669 41.8692 60.0738 41.8305 59.8234 41.6926C49.3552 34.7548 29.8114 34.8203 19.6054 41.8319C19.4166 41.9594 19.1942 42.0278 18.9665 42.0284Z" fill="#A1C481"/>
<path d="M16.1655 43.2076V111.292C31.538 116.337 48.1209 116.337 63.4934 111.292V43.2076C53.2382 32.9525 26.7647 32.6084 16.1655 43.2076Z" fill="#33435B"/>
<path d="M63.4196 104.96C62.9858 104.845 62.5614 104.697 62.15 104.517H60.8722V103.78C55.2449 99.8157 57.1862 79.1169 56.7193 73.3586C56.236 67.412 55.4088 63.9144 57.2108 58.1069C58.3002 54.593 59.406 50.7923 60.8722 47.2456V45.9842H61.4128C61.7159 45.2961 62.0435 44.6163 62.3875 43.961V42.1671C57.2517 37.8423 49.0279 35.557 40.6895 35.4014V115.092C48.4383 114.976 56.1256 113.695 63.4933 111.291V104.935L63.4196 104.96Z" fill="#2E6578"/>
<path d="M23.7418 62.3179C23.5865 62.3162 23.4353 62.2676 23.3081 62.1784C23.1809 62.0892 23.0837 61.9637 23.0292 61.8182L16.1241 42.8314C16.0557 42.6435 16.0647 42.4361 16.1492 42.2548C16.2337 42.0736 16.3867 41.9333 16.5746 41.8649C16.7626 41.7964 16.9699 41.8054 17.1512 41.8899C17.3325 41.9744 17.4728 42.1275 17.5412 42.3154L24.4544 61.3268C24.4949 61.4412 24.5074 61.5637 24.491 61.684C24.4745 61.8043 24.4295 61.9189 24.3598 62.0182C24.2901 62.1176 24.1976 62.1989 24.0901 62.2553C23.9826 62.3117 23.8632 62.3416 23.7418 62.3424V62.3179Z" fill="#A1C481"/>
<path d="M25.5033 74.7842H16.1655V77.0531H25.5033V74.7842Z" fill="#A1C481"/>
<path d="M55.9574 62.3173C55.836 62.3164 55.7165 62.2865 55.609 62.2301C55.5015 62.1737 55.4091 62.0924 55.3393 61.9931C55.2696 61.8937 55.2247 61.7791 55.2082 61.6588C55.1917 61.5385 55.2043 61.416 55.2447 61.3016L62.158 42.3229C62.184 42.2197 62.2313 42.123 62.297 42.0391C62.3627 41.9553 62.4452 41.8861 62.5392 41.8362C62.6333 41.7862 62.7368 41.7565 62.843 41.749C62.9493 41.7415 63.0559 41.7563 63.1561 41.7926C63.2562 41.8288 63.3476 41.8857 63.4244 41.9595C63.5012 42.0333 63.5617 42.1223 63.602 42.2209C63.6422 42.3195 63.6614 42.4255 63.6581 42.5319C63.6549 42.6384 63.6294 42.743 63.5832 42.839L56.67 61.8176C56.6101 61.9595 56.5116 62.0816 56.3855 62.1699C56.2595 62.2583 56.1111 62.3094 55.9574 62.3173Z" fill="#A1C481"/>
<path d="M63.4933 111.292L54.0244 95.3195L55.6626 89.5039L63.5096 99.6608C63.6407 102.626 63.6161 108.057 63.4933 111.292Z" fill="#A1C481"/>
<path d="M15.9771 111.325L25.4459 95.3277L23.8323 89.5039L15.9771 99.6608V111.325Z" fill="#A1C481"/>
<path d="M63.4931 74.7842H54.1553V77.0531H63.4931V74.7842Z" fill="#A1C481"/>
<path d="M39.8128 102.281C35.1944 102.276 30.5878 101.816 26.06 100.905C24.7648 100.643 23.6 99.9408 22.7626 98.9184C21.9253 97.896 21.4668 96.6157 21.4648 95.2942V58.9833C21.464 58.2681 21.6882 57.5708 22.1057 56.9901C22.5232 56.4094 23.1129 55.9748 23.7911 55.7478C34.1795 52.144 45.4789 52.144 55.8672 55.7478C56.5455 55.9748 57.1351 56.4094 57.5526 56.9901C57.9701 57.5708 58.1943 58.2681 58.1935 58.9833V95.2532C58.1896 96.5734 57.7303 97.8517 56.8931 98.8724C56.0559 99.8932 54.8921 100.594 53.5983 100.856C49.0616 101.786 44.4438 102.263 39.8128 102.281V102.281Z" fill="#B6E586"/>
<path d="M15.4525 46.804L8.22803 47.5576V47.1644C8.22923 46.3123 8.54512 45.4907 9.11506 44.8573C9.685 44.2238 10.4688 43.8232 11.3161 43.7324L13.241 43.5358C13.5201 43.5059 13.8023 43.5351 14.0694 43.6215C14.3364 43.708 14.5823 43.8497 14.7909 44.0375C14.9996 44.2252 15.1663 44.4549 15.2803 44.7114C15.3943 44.9679 15.453 45.2455 15.4525 45.5262V46.804Z" fill="#B6E586"/>
<path d="M64.3203 46.804L71.5448 47.5576V47.1644C71.5436 46.3123 71.2277 45.4907 70.6578 44.8573C70.0879 44.2238 69.304 43.8232 68.4568 43.7324L66.5319 43.5358C66.2528 43.5059 65.9705 43.5351 65.7035 43.6215C65.4364 43.708 65.1906 43.8497 64.9819 44.0375C64.7733 44.2252 64.6065 44.4549 64.4925 44.7114C64.3786 44.9679 64.3199 45.2455 64.3203 45.5262V46.804Z" fill="#B6E586"/>
<path d="M53.2706 120.9C53.2724 120.614 53.2152 120.33 53.1025 120.068C52.9899 119.805 52.8242 119.568 52.6159 119.372C52.4076 119.176 52.1611 119.025 51.8918 118.928C51.6225 118.832 51.3363 118.792 51.0509 118.811C43.4472 119.258 35.8231 119.234 28.2224 118.737C27.9407 118.716 27.6576 118.753 27.3909 118.846C27.1242 118.939 26.8797 119.087 26.6728 119.279C26.4658 119.472 26.3009 119.705 26.1884 119.964C26.0759 120.223 26.0182 120.503 26.0191 120.785V120.785C29.8688 121.195 35.0292 121.399 40.1896 121.399C44.8666 121.399 49.5355 121.227 53.2952 120.9H53.2706Z" fill="#B6E586"/>
<path d="M54.0815 4.88223L64.9674 12.4589C64.9674 11.9593 64.9674 11.4596 64.9674 10.9682C64.9674 6.87266 60.9374 2.13004 55.4412 1.24541C54.9907 1.17169 54.532 1.11436 54.0815 1.04883V4.88223Z" fill="#93B3B6"/>
<path d="M25.4458 1.10547C25.0526 1.15461 24.6676 1.20376 24.2744 1.26929C18.7537 2.15392 14.6909 6.92111 14.6909 11.0002C14.6909 11.4835 14.6909 11.9668 14.6909 12.4583L25.4785 4.88154L25.4458 1.10547Z" fill="#93B3B6"/>
<path d="M61.085 9.7229L65.0003 12.4423C65.0003 11.9427 65.0003 11.443 65.0003 10.9516C65.0003 8.49424 63.5095 5.76663 61.1177 3.80078L61.085 9.7229Z" fill="#FB663E"/>
<path d="M18.6963 3.75977C16.239 5.72562 14.6909 8.49418 14.6909 11.0006C14.6909 11.4839 14.6909 11.9672 14.6909 12.4586L18.7291 9.62455L18.6963 3.75977Z" fill="#FB663E"/>
<path d="M55.3433 121.628C55.9412 121.571 56.531 121.522 57.1207 121.456C60.9705 121.022 63.993 118.131 64.763 113.503L58.5787 116.484C57.6116 116.953 56.7955 117.683 56.2235 118.593C55.6514 119.502 55.3464 120.554 55.3433 121.628V121.628Z" fill="#D60009"/>
<path d="M14.8955 113.503C15.6655 118.131 18.688 121.022 22.5377 121.456L23.9302 121.596C23.9278 120.538 23.6327 119.501 23.0775 118.6C22.5224 117.7 21.7289 116.97 20.7849 116.493L14.8955 113.503Z" fill="#D60009"/>
<path d="M60.7656 115.428V120.138C61.859 119.373 62.7798 118.387 63.4684 117.244C64.1569 116.102 64.5979 114.827 64.7629 113.503L60.7656 115.428Z" fill="#FB663E"/>
<path d="M18.6306 115.387L14.8955 113.512C15.0597 114.784 15.4744 116.01 16.1155 117.121C16.7566 118.232 17.6114 119.204 18.6306 119.983V115.387Z" fill="#FB663E"/>
<path d="M55.4823 4.20216C55.5396 3.73527 56.5962 3.48135 57.8495 3.62879C59.1027 3.77622 60.0611 4.27588 60.0037 4.73458C59.9464 5.19328 58.8979 5.45539 57.6447 5.30795C56.3915 5.16051 55.4331 4.66905 55.4823 4.20216Z" fill="#79888D"/>
<path d="M24.1762 4.20216C24.1189 3.73527 23.0623 3.48135 21.809 3.62879C20.5558 3.77622 19.5975 4.27588 19.6548 4.73458C19.7121 5.19328 20.7606 5.45539 22.0138 5.30795C23.267 5.16051 24.2254 4.66905 24.1762 4.20216Z" fill="#79888D"/>
</g>
<defs>
<filter id="filter0_d_977_9114" x="3" y="0" width="68.2842" height="128.37" filterUnits="userSpaceOnUse" color-interpolation-filters="sRGB">
<feFlood flood-opacity="0" result="BackgroundImageFix"/>
<feColorMatrix in="SourceAlpha" type="matrix" values="0 0 0 0 0 0 0 0 0 0 0 0 0 0 0 0 0 0 127 0" result="hardAlpha"/>
<feOffset dx="-5" dy="6"/>
<feComposite in2="hardAlpha" operator="out"/>
<feColorMatrix type="matrix" values="0 0 0 0 0 0 0 0 0 0 0 0 0 0 0 0 0 0 0.25 0"/>
<feBlend mode="normal" in2="BackgroundImageFix" result="effect1_dropShadow_977_9114"/>
<feBlend mode="normal" in="SourceGraphic" in2="effect1_dropShadow_977_9114" result="shape"/>
</filter>
<clipPath id="clip0_977_9114">
<rect width="70.8853" height="130" fill="white" transform="translate(0.659668)"/>
</clipPath>
</defs>
</svg>
