<svg width="70" height="130" viewBox="0 0 70 130" fill="none" xmlns="http://www.w3.org/2000/svg">
<g clip-path="url(#clip0_977_8918)">
<g opacity="0.3" filter="url(#filter0_d_977_8918)">
<path d="M69.1111 43.4802C69.1099 42.6505 68.8023 41.8505 68.2474 41.2338C67.6925 40.617 66.9293 40.2269 66.1043 40.1385L64.1583 39.9391C63.9829 30.3685 63.7596 20.5029 63.5522 10.6931C63.5522 6.70535 59.6283 2.08756 54.2767 1.22621C44.2246 -0.408736 33.9743 -0.408736 23.9221 1.22621C18.5467 2.08756 14.5908 6.72928 14.5908 10.7011C14.4074 20.4949 14.208 30.3366 14.0485 39.8992L12.0068 40.1145C11.1777 40.2034 10.4112 40.5969 9.85571 41.2187C9.30021 41.8405 8.9953 42.6464 9.00005 43.4802V43.863L13.9927 43.3366C13.5301 71.7053 13.3945 97.2109 14.5908 111.128C14.5908 116.982 17.8767 120.699 22.2313 121.193C33.4223 122.461 44.7207 122.461 55.9117 121.193C60.2663 120.707 63.5522 116.982 63.5522 111.128C64.8841 97.1949 64.7405 71.6974 64.2221 43.3366L69.1111 43.8471V43.4802Z" fill="#314754"/>
</g>
<path d="M55.2425 121.394C44.0515 122.662 32.7531 122.662 21.5621 121.394C17.2075 120.908 13.9216 117.183 13.9216 111.329C12.2787 92.1881 13.1241 51.1624 13.9216 10.9022C13.9216 6.91449 17.9094 2.28873 23.2529 1.42738C33.3051 -0.207564 43.5554 -0.207564 53.6075 1.42738C58.9591 2.28873 62.883 6.93842 62.883 10.8863C63.7523 51.1703 64.7173 92.1961 62.883 111.377C62.883 117.183 59.5891 120.908 55.2425 121.394Z" fill="#9AABBB"/>
<path d="M38.4063 120.869C33.0757 120.868 27.7497 120.556 22.4554 119.935C18.6112 119.505 16.1309 116.123 16.1309 111.33L15.3892 101.959L15.3892 38.5777L16.8646 12.3783C16.8646 9.18814 20.1904 5.12065 24.9517 4.35501C29.4428 3.55193 33.9956 3.14363 38.5579 3.13477C43.0268 3.13898 47.4866 3.53932 51.8849 4.33108C56.6223 5.12863 59.9241 9.16421 59.9241 12.3065L61.3996 38.5378L61.3996 101.927L60.6658 111.298C60.6658 116.083 58.1775 119.473 54.3333 119.903C49.0476 120.534 43.7296 120.857 38.4063 120.869V120.869Z" fill="#B0C5D0"/>
<path d="M15.3652 38.5772L15.3652 101.958C30.3311 106.867 46.4736 106.867 61.4395 101.958L61.4395 38.5772C46.0894 31.6917 30.7313 31.6917 15.3652 38.5772Z" fill="#33435B"/>
<path d="M54.5647 76.7796C54.4929 76.4605 54.4132 76.1495 54.3573 75.8305C54.2223 75.1184 54.2662 74.384 54.4849 73.6931C54.1269 70.7002 53.9723 67.6866 54.0224 64.6728C54.0334 64.0445 54.1747 63.4254 54.4371 62.8544C53.8241 62.049 53.5035 61.0589 53.5279 60.0471C53.5018 59.6061 53.534 59.1636 53.6236 58.7311C55.0193 52.0796 58.1536 45.2845 60.7297 38.274C53.6421 35.105 45.9708 33.4507 38.207 33.417L38.207 105.635C45.7043 105.629 53.1586 104.502 60.323 102.293C57.7629 98.074 55.115 93.7593 53.815 89.0937C52.5868 84.6912 53.2567 80.7115 54.5647 76.7796Z" fill="#2E6578"/>
<path d="M22.7426 57.1758C22.592 57.1758 22.445 57.1301 22.3211 57.0446C22.1971 56.9592 22.1022 56.838 22.0487 56.6972L15.477 38.7046C15.4269 38.5251 15.4463 38.3333 15.5312 38.1674C15.6162 38.0014 15.7604 37.8736 15.9354 37.8093C16.1103 37.7449 16.303 37.7488 16.4752 37.8201C16.6474 37.8914 16.7865 38.025 16.8647 38.1942L23.4365 56.1868C23.5013 56.371 23.4918 56.5732 23.4099 56.7504C23.328 56.9277 23.1801 57.066 22.9978 57.1359C22.9157 57.164 22.8294 57.1775 22.7426 57.1758V57.1758Z" fill="#9AABBB"/>
<path d="M16.4342 102.883C16.2499 102.884 16.0685 102.838 15.9078 102.748C15.7801 102.678 15.6675 102.584 15.5762 102.471C15.485 102.358 15.4171 102.229 15.3763 102.089C15.3355 101.95 15.3227 101.804 15.3387 101.659C15.3546 101.515 15.3989 101.375 15.4691 101.248L23.5882 86.2622C23.7379 86.0238 23.9728 85.8512 24.2451 85.7796C24.5174 85.708 24.8068 85.7427 25.0545 85.8767C25.3022 86.0107 25.4896 86.2339 25.5786 86.501C25.6677 86.7682 25.6518 87.0592 25.5342 87.315L17.4072 102.325C17.3106 102.497 17.1691 102.64 16.9978 102.738C16.8265 102.837 16.6317 102.887 16.4342 102.883Z" fill="#9AABBB"/>
<path d="M24.4573 70.0566H15.3652V72.2659H24.4573V70.0566Z" fill="#9AABBB"/>
<path d="M54.0622 57.1764C53.9805 57.1918 53.8967 57.1918 53.815 57.1764C53.6313 57.1082 53.4822 56.9701 53.4 56.7923C53.3178 56.6145 53.3093 56.4114 53.3763 56.2273L59.9321 38.2825C60.0118 38.1169 60.1501 37.9868 60.3202 37.9173C60.4904 37.8479 60.6803 37.844 60.8531 37.9066C61.0259 37.9692 61.1693 38.0937 61.2556 38.256C61.3418 38.4182 61.3647 38.6068 61.3199 38.785L54.7561 56.6899C54.7039 56.8322 54.6095 56.955 54.4854 57.042C54.3614 57.129 54.2137 57.1759 54.0622 57.1764V57.1764Z" fill="#9AABBB"/>
<path d="M60.323 102.883C60.1242 102.883 59.929 102.83 59.7578 102.729C59.5866 102.628 59.4458 102.483 59.35 102.309L51.2708 87.3788C51.1902 87.2504 51.1367 87.1068 51.1138 86.9569C51.0909 86.807 51.099 86.654 51.1375 86.5074C51.1761 86.3607 51.2443 86.2235 51.338 86.1043C51.4317 85.9851 51.5488 85.8864 51.6822 85.8142C51.8155 85.7421 51.9623 85.698 52.1133 85.6849C52.2644 85.6717 52.4165 85.6896 52.5604 85.7376C52.7042 85.7856 52.8367 85.8625 52.9496 85.9637C53.0625 86.065 53.1535 86.1883 53.2168 86.326L61.296 101.256C61.3646 101.383 61.4075 101.523 61.4222 101.667C61.4369 101.81 61.4231 101.956 61.3816 102.094C61.3402 102.233 61.2718 102.362 61.1805 102.474C61.0891 102.586 60.9766 102.679 60.8493 102.747C60.6886 102.838 60.5072 102.884 60.323 102.883Z" fill="#9AABBB"/>
<path d="M61.4475 70.0566H52.3555V72.2659H61.4475V70.0566Z" fill="#9AABBB"/>
<path d="M38.3824 95.323C32.3513 95.3064 26.3482 94.502 20.5254 92.9304L20.5254 51.5935C32.0055 47.0105 44.8072 47.0105 56.2873 51.5935L56.2873 92.9304C50.4481 94.5011 44.4293 95.3054 38.3824 95.323V95.323Z" fill="#B0C5D0"/>
<path d="M15.3654 43.2991L8.33106 44.0408V43.658C8.33045 42.8278 8.63742 42.0268 9.1927 41.4097C9.74797 40.7926 10.5122 40.403 11.3378 40.3163L15.3654 39.8936V43.2991Z" fill="#33435B"/>
<path d="M61.4077 43.2984L68.4421 44.0401V43.6573C68.4427 42.8271 68.1357 42.0262 67.5804 41.409C67.0252 40.7919 66.2609 40.4024 65.4353 40.3156L61.4077 39.877V43.2984Z" fill="#33435B"/>
<path d="M16.9126 11.4768L25.7733 7.21795C26.3411 6.95179 26.8221 6.53052 27.1608 6.00275C27.4995 5.47497 27.6821 4.8622 27.6874 4.23513C27.6876 4.16093 27.6714 4.08761 27.6398 4.02044C27.6083 3.95327 27.5623 3.89391 27.5051 3.84664C27.4479 3.79936 27.381 3.76534 27.3091 3.74701C27.2372 3.72869 27.1621 3.72651 27.0893 3.74064L22.4795 4.6977C20.918 5.01757 19.5151 5.86703 18.5079 7.10235C17.5008 8.33767 16.9513 9.88299 16.9525 11.4768H16.9126Z" fill="#637784"/>
<path d="M19.7118 5.90137C18.837 6.54538 18.1262 7.38644 17.6371 8.35639C17.148 9.32634 16.8943 10.3979 16.8965 11.4842L19.7118 10.1284V5.90137Z" fill="#E0BD65"/>
<path d="M25.7973 5.40723H23.2212V6.33238H25.7973V5.40723Z" fill="#BDD4DB"/>
<path d="M22.9179 7.14648H20.3418V8.06366H22.9179V7.14648Z" fill="#BDD4DB"/>
<path d="M59.8604 11.4768L50.9997 7.21795C50.4394 6.94612 49.9666 6.52242 49.6352 5.99507C49.3039 5.46772 49.1273 4.85793 49.1255 4.23513C49.1253 4.16093 49.1416 4.08761 49.1731 4.02044C49.2046 3.95327 49.2506 3.89391 49.3078 3.84664C49.365 3.79936 49.4319 3.76534 49.5038 3.74701C49.5757 3.72869 49.6508 3.72651 49.7236 3.74064L54.3335 4.6977C55.8949 5.01757 57.2979 5.86703 58.305 7.10235C59.3121 8.33767 59.8616 9.88299 59.8604 11.4768V11.4768Z" fill="#637784"/>
<path d="M57.0449 5.90137C57.9197 6.54538 58.6305 7.38644 59.1196 8.35639C59.6088 9.32634 59.8625 10.3979 59.8603 11.4842L57.0449 10.1284V5.90137Z" fill="#E0BD65"/>
<path d="M50.9757 6.33203H53.5518V5.40688H50.9757V6.33203Z" fill="#BDD4DB"/>
<path d="M53.8629 8.06348H56.439V7.1463H53.8629V8.06348Z" fill="#BDD4DB"/>
<path d="M27.7909 6.33203L25.9247 35.1474L24.4492 35.0198L27.7909 6.33203Z" fill="#9AABBB"/>
<path d="M49.0137 6.33203L52.3554 35.0198L50.8879 35.1474L49.0137 6.33203Z" fill="#9AABBB"/>
<path d="M47.6816 6.29261C41.5217 5.5269 35.2906 5.5269 29.1307 6.29261L28.9473 4.8331C35.2263 4.05173 41.578 4.05173 47.8571 4.8331L47.6816 6.29261Z" fill="#637784"/>
<path d="M48.0329 121.61C47.8477 121.603 47.6716 121.528 47.5393 121.398C47.4069 121.268 47.328 121.093 47.318 120.908C47.308 120.723 47.3676 120.541 47.4852 120.398C47.6028 120.255 47.7697 120.16 47.9532 120.134L56.1998 119.217C56.3846 119.213 56.5641 119.278 56.7032 119.4C56.8423 119.522 56.931 119.691 56.952 119.874C56.9729 120.058 56.9246 120.243 56.8165 120.393C56.7083 120.542 56.5481 120.647 56.3673 120.684L48.1207 121.602L48.0329 121.61Z" fill="#D60009"/>
<path d="M28.6845 121.61H28.6048L20.3581 120.693C20.167 120.671 19.9919 120.575 19.8698 120.426C19.7478 120.278 19.6884 120.087 19.7042 119.895C19.7262 119.705 19.8221 119.53 19.9712 119.41C20.1203 119.289 20.3107 119.231 20.5017 119.249L28.7483 120.166C28.9387 120.19 29.1126 120.287 29.2343 120.435C29.3559 120.583 29.4161 120.773 29.4023 120.964C29.3795 121.14 29.2946 121.301 29.163 121.42C29.0313 121.538 28.8616 121.606 28.6845 121.61V121.61Z" fill="#D60009"/>
</g>
<defs>
<filter id="filter0_d_977_8918" x="4" y="0" width="65.1108" height="128.145" filterUnits="userSpaceOnUse" color-interpolation-filters="sRGB">
<feFlood flood-opacity="0" result="BackgroundImageFix"/>
<feColorMatrix in="SourceAlpha" type="matrix" values="0 0 0 0 0 0 0 0 0 0 0 0 0 0 0 0 0 0 127 0" result="hardAlpha"/>
<feOffset dx="-5" dy="6"/>
<feComposite in2="hardAlpha" operator="out"/>
<feColorMatrix type="matrix" values="0 0 0 0 0 0 0 0 0 0 0 0 0 0 0 0 0 0 0.25 0"/>
<feBlend mode="normal" in2="BackgroundImageFix" result="effect1_dropShadow_977_8918"/>
<feBlend mode="normal" in="SourceGraphic" in2="effect1_dropShadow_977_8918" result="shape"/>
</filter>
<clipPath id="clip0_977_8918">
<rect width="68.5889" height="130" fill="white" transform="translate(0.570801)"/>
</clipPath>
</defs>
</svg>
