<svg width="71" height="130" viewBox="0 0 71 130" fill="none" xmlns="http://www.w3.org/2000/svg">
<g clip-path="url(#clip0_977_9046)">
<g opacity="0.3" filter="url(#filter0_d_977_9046)">
<path d="M71.3004 47.5029L65.4601 46.8886C65.7304 62.4516 65.8861 83.8384 65.7468 96.1577L66.8526 99.2867L64.3953 114.268C63.4124 118.421 60.5209 120.993 56.9005 121.402C45.4093 122.697 33.8091 122.697 22.3179 121.402C18.7057 120.993 15.8224 118.429 14.8395 114.301L13.5535 110.672C12.7453 108.397 12.3298 106.001 12.3249 103.587V93.0943C12.3272 90.6804 12.7399 88.2845 13.5453 86.009C13.4225 73.7634 13.5453 62.296 13.7992 46.8968L8 47.5029V47.1507C8.0012 46.2986 8.31708 45.477 8.88702 44.8436C9.45696 44.2101 10.2408 43.8095 11.088 43.7187L13.0129 43.5221C13.2892 43.4929 13.5686 43.5236 13.832 43.6122C13.832 41.8921 13.8621 40.161 13.9221 38.4191C12.8431 35.4012 12.289 32.2207 12.2839 29.0157L12.2839 20.9148C12.289 17.7072 12.8431 14.524 13.9221 11.5033L14.5938 9.603C15.3719 5.89245 19.1152 2.04266 24.0217 1.25632C34.3431 -0.418775 44.8671 -0.418775 55.1886 1.25632C60.1032 2.07543 63.8465 5.95798 64.5755 9.67671L66.5 21.5L65.2963 38.2798C65.2963 40.0819 65.3618 41.8675 65.3946 43.6532C65.6777 43.5515 65.9801 43.5151 66.2792 43.5467L68.2041 43.7432C69.0486 43.8317 69.8311 44.228 70.4021 44.8565C70.9732 45.4849 71.2929 46.3016 71.3004 47.1507V47.5029Z" fill="#314754"/>
</g>
<path d="M56.5138 121.457C45.0198 122.751 33.417 122.751 21.923 121.457C17.4425 120.957 14.076 117.132 14.076 111.112C12.3886 91.453 13.2569 52.3572 14.076 11.0006C14.076 6.90511 18.1715 2.15431 23.6595 1.26967C33.9673 -0.404996 44.4777 -0.404996 54.7855 1.26967C60.2899 2.15431 64.3117 6.92969 64.3117 10.9924C65.2127 52.3572 66.2038 91.4694 64.3117 111.136C64.3526 117.132 60.9861 120.957 56.5138 121.457Z" fill="#E53100"/>
<path d="M15.5917 112.627L15.5917 43.208C15.3165 33.476 15.5681 23.7363 16.3453 14.0315C16.3453 10.7551 19.761 6.57765 24.6592 5.79131C29.5305 4.96441 34.4622 4.54522 39.4031 4.53809C44.2426 4.54263 49.0732 4.95363 53.8439 5.76674C58.7094 6.58585 62.1005 10.7305 62.1005 13.9578C63.0179 21.641 63.1489 34.0504 62.8622 43.1752L62.8622 101.454V112.594C62.8459 119.598 15.5917 119.598 15.5917 112.627Z" fill="#FF8D36"/>
<path d="M15.5508 43.2076L15.5508 111.292C30.9233 116.337 47.5061 116.337 62.8786 111.292L62.8786 43.2076C52.6235 32.9525 26.15 32.6084 15.5508 43.2076Z" fill="#33435B"/>
<path d="M62.8131 104.96C62.3767 104.844 61.9495 104.697 61.5353 104.517H60.2247V103.78C54.5975 99.8157 56.5388 79.1169 56.0719 73.3586C55.5968 67.412 55.0889 64.2502 56.891 58.4346C57.9804 54.9206 62.4936 43.8627 62.8377 43.2074L61.74 42.1671C56.6043 37.8423 48.3805 35.557 40.042 35.4014L40.042 115.092C47.8002 114.99 55.4987 113.719 62.8786 111.324V104.968L62.8131 104.96Z" fill="#2E6578"/>
<path d="M62.8785 111.292L53.4097 95.3195L55.0479 89.5039L62.8949 99.6608C63.3781 99.6608 63.3782 111.292 62.8785 111.292Z" fill="#E53100"/>
<path d="M15.3623 111.325L24.8311 95.3277L23.2175 89.5039L15.3623 99.6608L15.3623 111.325Z" fill="#E53100"/>
<path d="M39.1981 104.518C33.0012 104.501 26.8331 103.675 20.8502 102.061L20.8502 61.1055C20.8442 59.7556 21.2749 58.44 22.078 57.355C22.881 56.27 24.0134 55.4738 25.3061 55.0851C34.3908 52.3701 44.071 52.3701 53.1557 55.0851C54.4483 55.4738 55.5807 56.27 56.3837 57.355C57.1868 58.44 57.6175 59.7556 57.6116 61.1055V102.061C51.6173 103.674 45.4384 104.5 39.2309 104.518H39.1981Z" fill="#FF8D36"/>
<path d="M14.8378 46.804L7.61328 47.5576V47.1644C7.61448 46.3123 7.93036 45.4907 8.5003 44.8573C9.07024 44.2238 9.85406 43.8232 10.7013 43.7324L12.6262 43.5358C12.9053 43.5059 13.1875 43.5351 13.4546 43.6215C13.7217 43.708 13.9675 43.8497 14.1762 44.0375C14.3848 44.2252 14.5515 44.4549 14.6655 44.7114C14.7795 44.9679 14.8382 45.2455 14.8378 45.5262V46.804Z" fill="#FF8D36"/>
<path d="M63.7056 46.804L70.93 47.5576V47.1644C70.9288 46.3123 70.613 45.4907 70.043 44.8573C69.4731 44.2238 68.6893 43.8232 67.842 43.7324L65.9171 43.5358C65.638 43.5059 65.3558 43.5351 65.0887 43.6215C64.8216 43.708 64.5758 43.8497 64.3671 44.0375C64.1585 44.2252 63.9918 44.4549 63.8778 44.7114C63.7638 44.9679 63.7051 45.2455 63.7056 45.5262V46.804Z" fill="#FF8D36"/>
<path d="M14.6251 41.4382C12.8506 36.4412 11.942 31.178 11.9385 25.8753L11.9385 24.1469C11.9438 18.8444 12.8523 13.5814 14.6251 8.58398V8.58398L14.6251 41.4382Z" fill="#E53100"/>
<path d="M63.812 41.4382C65.5799 36.4397 66.4856 31.1772 66.4904 25.8753V24.1469C66.484 18.8452 65.5783 13.5829 63.812 8.58398V41.4382Z" fill="#E53100"/>
<path d="M14.6251 114.863C12.8477 109.853 11.9391 104.575 11.9385 99.259L11.9385 97.5307C11.942 92.228 12.8506 86.9648 14.6251 81.9678V81.9678L14.6251 114.863Z" fill="#E53100"/>
<path d="M63.812 114.863C65.5829 109.851 66.4886 104.575 66.4904 99.259V97.5307C66.4856 92.2288 65.5799 86.9663 63.812 81.9678V81.9678V114.863Z" fill="#E53100"/>
<path d="M52.6559 118.664C43.5834 119.345 34.4716 119.312 25.4043 118.565V118.565V120.81C29.2541 121.219 34.4144 121.424 39.5748 121.424C44.2519 121.424 48.929 121.252 52.6805 120.924L52.6559 118.664Z" fill="#FF8D36"/>
<path d="M18.3271 39.7591C18.2466 39.7592 18.1681 39.7335 18.1032 39.6857C18.0383 39.638 17.9904 39.5707 17.9666 39.4937C17.9427 39.4167 17.9442 39.3341 17.9708 39.2581C17.9973 39.182 18.0476 39.1164 18.1142 39.071C28.7625 31.7646 49.1173 31.6991 60.0196 38.9154C60.062 38.9419 60.0986 38.9768 60.1271 39.0179C60.1556 39.0591 60.1755 39.1056 60.1854 39.1546C60.1954 39.2037 60.1953 39.2542 60.1851 39.3032C60.1749 39.3522 60.1548 39.3986 60.126 39.4396C60.0995 39.4821 60.0646 39.5187 60.0235 39.5472C59.9823 39.5757 59.9358 39.5956 59.8868 39.6055C59.8377 39.6155 59.7872 39.6154 59.7382 39.6051C59.6892 39.5949 59.6428 39.5748 59.6018 39.5461C48.9534 32.4609 28.9591 32.5346 18.5401 39.6935C18.4765 39.7346 18.4028 39.7573 18.3271 39.7591V39.7591Z" fill="#E53100"/>
<path d="M18.3271 38.2444C18.2466 38.2446 18.1681 38.2188 18.1032 38.1711C18.0383 38.1233 17.9904 38.056 17.9666 37.979C17.9427 37.9021 17.9442 37.8195 17.9708 37.7434C17.9973 37.6673 18.0476 37.6018 18.1142 37.5564C28.7625 30.25 49.1173 30.1844 60.0195 37.4007C60.1032 37.4561 60.1614 37.5425 60.1813 37.6408C60.2013 37.7391 60.1814 37.8413 60.126 37.925C60.0706 38.0086 59.9843 38.0668 59.886 38.0868C59.7877 38.1068 59.6854 38.0868 59.6018 38.0314C48.9534 30.9462 28.9591 31.0199 18.5401 38.1789C18.4784 38.2237 18.4034 38.2468 18.3271 38.2444V38.2444Z" fill="#E53100"/>
<path d="M27.0016 59.6306C35.0809 57.7169 43.4955 57.7169 51.5748 59.6306C51.9559 59.7241 52.2947 59.9428 52.5367 60.2517C52.7788 60.5607 52.9102 60.9419 52.9099 61.3343V64.3158C52.911 64.5457 52.8666 64.7734 52.7795 64.986C52.6923 65.1987 52.5639 65.3919 52.4018 65.5548C52.2397 65.7177 52.047 65.847 51.8348 65.9352C51.6226 66.0233 51.395 66.0687 51.1652 66.0687H27.4194C26.9545 66.0687 26.5086 65.8841 26.1799 65.5553C25.8512 65.2266 25.6665 64.7807 25.6665 64.3158V61.3261C25.668 60.9351 25.8003 60.5558 26.0422 60.2485C26.2841 59.9413 26.6219 59.7238 27.0016 59.6306V59.6306Z" fill="#33435B"/>
<path d="M51.5421 59.6303C47.7335 58.7364 43.839 58.2585 39.9272 58.2051V66.0685H51.1326C51.3624 66.0685 51.5899 66.0231 51.8022 65.9349C52.0144 65.8467 52.2071 65.7174 52.3692 65.5546C52.5313 65.3917 52.6596 65.1984 52.7468 64.9858C52.834 64.7732 52.8784 64.5454 52.8773 64.3156V61.3259C52.8758 60.9348 52.7435 60.5555 52.5016 60.2483C52.2596 59.941 51.9219 59.7235 51.5421 59.6303V59.6303Z" fill="#2E6578"/>
<path d="M17.508 8.2483C17.3289 8.2436 17.1562 8.1803 17.0165 8.0681C16.8636 7.93654 16.769 7.74968 16.7537 7.54852C16.7383 7.34735 16.8034 7.14832 16.9346 6.99507C19.0315 4.53776 22.5619 3.09614 27.4355 2.72755C27.6282 2.72671 27.814 2.79889 27.9556 2.92957C28.0971 3.06025 28.1839 3.23971 28.1984 3.43181C28.213 3.62392 28.1542 3.81441 28.0339 3.9649C27.9136 4.1154 27.7408 4.21472 27.5502 4.24288C23.0943 4.57871 19.908 5.83194 18.0895 7.97799C18.0158 8.05985 17.9263 8.12599 17.8263 8.17243C17.7264 8.21888 17.6181 8.24468 17.508 8.2483Z" fill="#062A36"/>
<path d="M19.4493 4.91504C18.4878 5.45832 17.6263 6.16195 16.9019 6.99556C16.7707 7.1488 16.7056 7.34784 16.721 7.549C16.7363 7.75017 16.8308 7.93703 16.9838 8.06858C17.1235 8.18079 17.2962 8.24409 17.4753 8.24878C17.5854 8.24517 17.6937 8.21936 17.7936 8.17292C17.8935 8.12647 17.9831 8.06034 18.0569 7.97848C18.4673 7.50227 18.935 7.0786 19.4493 6.71706V4.91504Z" fill="#FF8327"/>
<path d="M60.9206 8.2483C61.0998 8.2436 61.2724 8.1803 61.4121 8.0681C61.5663 7.9377 61.6624 7.75143 61.6793 7.55023C61.6962 7.34903 61.6325 7.14935 61.5022 6.99507C59.3971 4.53776 55.8668 3.09614 50.9931 2.72755C50.8005 2.72671 50.6146 2.79889 50.4731 2.92957C50.3315 3.06025 50.2447 3.23971 50.2302 3.43181C50.2157 3.62392 50.2745 3.81441 50.3947 3.9649C50.515 4.1154 50.6878 4.21472 50.8784 4.24288C55.3344 4.57871 58.5207 5.83194 60.3473 7.97799C60.4178 8.06157 60.5056 8.12898 60.6045 8.17562C60.7035 8.22226 60.8113 8.24705 60.9206 8.2483Z" fill="#062A36"/>
<path d="M58.9795 4.91504C59.9424 5.45979 60.8064 6.16317 61.5351 6.99556C61.6653 7.14984 61.729 7.34951 61.7121 7.55072C61.6952 7.75192 61.5992 7.93818 61.445 8.06858C61.3053 8.18079 61.1326 8.24409 60.9535 8.24878C60.8441 8.24754 60.7363 8.22275 60.6374 8.17611C60.5385 8.12946 60.4507 8.06206 60.3802 7.97848C59.9668 7.50211 59.4964 7.07846 58.9795 6.71706V4.91504Z" fill="#FF8327"/>
<path d="M62.092 116.706L61.9364 114.912C60.1753 116.444 57.4968 116.755 54.0402 117.312C53.8539 117.358 53.6916 117.472 53.5858 117.632C53.48 117.792 53.4385 117.986 53.4695 118.175C53.5005 118.365 53.6018 118.535 53.7532 118.653C53.9045 118.771 54.0948 118.827 54.286 118.811C58.1685 118.18 60.5439 117.894 62.092 116.706Z" fill="#6D1A1D"/>
<path d="M16.1484 116.706L16.2959 114.912C18.0651 116.444 20.7436 116.755 24.192 117.312C24.2975 117.319 24.4002 117.349 24.4937 117.398C24.5872 117.447 24.6695 117.515 24.7353 117.598C24.8011 117.68 24.849 117.776 24.8759 117.878C24.9028 117.98 24.9081 118.087 24.8916 118.191C24.8751 118.296 24.837 118.395 24.7798 118.484C24.7226 118.573 24.6476 118.649 24.5595 118.707C24.4713 118.766 24.372 118.805 24.2679 118.823C24.1637 118.841 24.057 118.837 23.9545 118.811C20.0638 118.18 17.6965 117.894 16.1484 116.706Z" fill="#6D1A1D"/>
</g>
<defs>
<filter id="filter0_d_977_9046" x="3" y="0" width="68.3003" height="128.373" filterUnits="userSpaceOnUse" color-interpolation-filters="sRGB">
<feFlood flood-opacity="0" result="BackgroundImageFix"/>
<feColorMatrix in="SourceAlpha" type="matrix" values="0 0 0 0 0 0 0 0 0 0 0 0 0 0 0 0 0 0 127 0" result="hardAlpha"/>
<feOffset dx="-5" dy="6"/>
<feComposite in2="hardAlpha" operator="out"/>
<feColorMatrix type="matrix" values="0 0 0 0 0 0 0 0 0 0 0 0 0 0 0 0 0 0 0.25 0"/>
<feBlend mode="normal" in2="BackgroundImageFix" result="effect1_dropShadow_977_9046"/>
<feBlend mode="normal" in="SourceGraphic" in2="effect1_dropShadow_977_9046" result="shape"/>
</filter>
<clipPath id="clip0_977_9046">
<rect width="70.8853" height="130" fill="white" transform="translate(0.0449219)"/>
</clipPath>
</defs>
</svg>
