<svg width="72" height="130" viewBox="0 0 72 130" fill="none" xmlns="http://www.w3.org/2000/svg">
<g clip-path="url(#clip0_977_9028)">
<g opacity="0.3" filter="url(#filter0_d_977_9028)">
<path d="M71.284 47.5439L65.4438 46.9378C65.7141 62.5007 65.8697 83.8875 65.7304 96.1987L64.3789 114.309C63.4042 118.462 60.5128 121.034 56.8923 121.443C45.4011 122.738 33.8009 122.738 22.3097 121.443C18.6975 121.042 15.8061 118.47 14.8231 114.342L13.5453 86.0582C13.4225 73.7716 13.5453 62.3042 13.7993 46.9378L8 47.5439V47.1507C8.0012 46.2986 8.31709 45.477 8.88703 44.8436C9.45696 44.2101 10.2408 43.8095 11.088 43.7187L13.0129 43.5221C13.2893 43.4929 13.5686 43.5236 13.832 43.6122C13.832 41.8921 14.5938 9.603 14.5938 9.603C15.3637 5.89246 19.1152 2.04266 24.0217 1.25632C34.3431 -0.418775 44.8671 -0.418775 55.1886 1.25632C60.1032 2.07543 63.8383 5.95798 64.5755 9.67672L65.2881 38.2553C65.3318 40.0573 65.3673 41.8484 65.3946 43.6286C65.6776 43.5264 65.9801 43.49 66.2792 43.5221L68.1959 43.7187C69.0447 43.8077 69.8305 44.2074 70.4021 44.8411C70.9737 45.4747 71.2907 46.2974 71.2922 47.1507L71.284 47.5439Z" fill="#314754"/>
</g>
<path d="M56.6204 121.457C45.1292 122.751 33.529 122.751 22.0378 121.457C17.5573 120.957 14.1908 117.132 14.1908 111.112C12.4953 91.4533 13.3717 52.3575 14.1908 11.001C14.1908 6.90543 18.2863 2.15463 23.7743 1.27C34.0958 -0.405103 44.6198 -0.405103 54.9412 1.27C60.4374 2.16282 64.4674 6.9382 64.4674 10.9928C65.3602 52.3575 66.3595 91.4697 64.4674 111.136C64.4674 117.157 61.1009 120.957 56.6204 121.457Z" fill="#950000"/>
<path d="M15.7065 112.627L15.7065 43.208C15.4313 33.476 15.6828 23.7363 16.4601 14.0315C16.4601 10.7551 19.8757 6.57766 24.7658 5.79132C29.6371 4.96487 34.5688 4.54567 39.5097 4.53809C44.3599 4.53809 49.2015 4.94635 53.9832 5.75855C58.8077 6.57766 62.1743 10.7387 62.1743 13.9905C63.0917 21.6819 63.2227 34.0832 62.9278 43.208L62.9278 101.487V112.627C62.9934 119.614 15.7065 119.614 15.7065 112.627Z" fill="#D1291F"/>
<path d="M40.1563 37.6542C31.0479 37.6542 31.0479 36.9662 31.0479 36.2454L32.3502 22.5254C32.4224 21.6483 32.8225 20.8307 33.4707 20.2356C34.119 19.6404 34.9678 19.3115 35.8478 19.3145H44.432C45.3147 19.3096 46.1667 19.6387 46.8169 20.2358C47.4671 20.8328 47.8675 21.6536 47.9378 22.5336L49.232 36.1717C49.232 36.9662 49.232 37.6542 40.1563 37.6542ZM32.6287 35.7785C35.1264 36.0742 37.6418 36.1947 40.1563 36.1389C42.6681 36.1951 45.1807 36.0747 47.6757 35.7785L46.4306 22.6728C46.3914 22.1702 46.1636 21.701 45.793 21.3592C45.4223 21.0174 44.9362 20.8283 44.432 20.8299H35.8724C35.3698 20.8264 34.8847 21.0139 34.5152 21.3546C34.1457 21.6952 33.9193 22.1635 33.882 22.6646L32.6287 35.7785Z" fill="#950000"/>
<path d="M15.6655 43.2076L15.6655 99.218C31.038 104.264 47.6208 104.264 62.9934 99.218L62.9934 43.2076C52.7382 32.9525 26.2647 32.6084 15.6655 43.2076Z" fill="#33435B"/>
<path d="M56.1862 73.3586C55.7029 67.4201 55.2033 64.2502 57.0053 58.4346C58.0783 54.9042 62.6161 43.8627 62.9929 43.2074L61.8953 42.1672C56.7596 37.8505 48.5357 35.5652 40.1973 35.4014L40.1973 102.986C47.941 102.871 55.6242 101.601 62.9929 99.2178C62.9929 99.2178 56.6531 79.1169 56.1862 73.3586Z" fill="#2E6578"/>
<path d="M62.9933 98.4649L53.5244 82.4596L55.1626 76.6357L62.9933 86.7926C63.4765 86.7926 63.4765 98.4649 62.9933 98.4649Z" fill="#950000"/>
<path d="M15.4771 98.4649L24.9459 82.4596L23.3323 76.6357L15.4771 86.7926L15.4771 98.4649Z" fill="#950000"/>
<path d="M39.3128 91.6498C33.1162 91.6289 26.9486 90.8029 20.9648 89.1925L20.9648 54.9048C20.9652 54.2857 21.1598 53.6823 21.5213 53.1797C21.8828 52.6771 22.393 52.3007 22.9798 52.1035C28.2477 50.2679 33.7835 49.3186 39.3619 49.2939C44.9403 49.3193 50.4759 50.2687 55.744 52.1035C56.3186 52.3117 56.8146 52.6928 57.1637 53.1945C57.5128 53.6962 57.6979 54.2937 57.6935 54.9048L57.6935 89.2253C51.699 90.8379 45.5203 91.6639 39.3128 91.6826V91.6498Z" fill="#E5CF92"/>
<path d="M14.9525 46.8033L7.72803 47.5323V47.1391C7.72923 46.287 8.04512 45.4654 8.61505 44.832C9.18499 44.1985 9.96881 43.7979 10.816 43.7071L12.7409 43.5105C13.0198 43.4819 13.3015 43.512 13.568 43.5989C13.8345 43.6859 14.0799 43.8276 14.2882 44.0152C14.4966 44.2027 14.6633 44.4318 14.7777 44.6877C14.8922 44.9436 14.9517 45.2206 14.9525 45.5009V46.8033Z" fill="#D1291F"/>
<path d="M63.812 46.8041L71.0365 47.5577V47.1645C71.0353 46.3124 70.7194 45.4908 70.1495 44.8573C69.5795 44.2239 68.7957 43.8233 67.9485 43.7325L66.0236 43.5359C65.7447 43.5073 65.463 43.5374 65.1965 43.6243C64.93 43.7112 64.6847 43.853 64.4763 44.0405C64.268 44.2281 64.1012 44.4572 63.9868 44.7131C63.8724 44.969 63.8128 45.246 63.812 45.5263V46.8041Z" fill="#D1291F"/>
<path d="M17.59 8.21546C17.4109 8.21076 17.2383 8.14746 17.0986 8.03526C16.9456 7.9037 16.8511 7.71685 16.8357 7.51568C16.8204 7.31452 16.8854 7.11548 17.0166 6.96223C19.1136 4.50492 22.6439 3.06329 27.5176 2.6947C27.6177 2.68688 27.7183 2.69892 27.8137 2.73014C27.9092 2.76135 27.9975 2.81113 28.0736 2.87659C28.1497 2.94206 28.2121 3.02192 28.2573 3.1116C28.3024 3.20127 28.3294 3.29899 28.3367 3.39913C28.3456 3.4988 28.3346 3.59926 28.3044 3.69464C28.2741 3.79002 28.2251 3.87842 28.1603 3.95467C28.0955 4.03092 28.0161 4.09349 27.9269 4.13875C27.8376 4.184 27.7402 4.21102 27.6404 4.21823C23.1845 4.55406 19.9982 5.80729 18.1716 7.95335C18.1005 8.0378 18.0113 8.1052 17.9106 8.15056C17.81 8.19593 17.7004 8.21811 17.59 8.21546V8.21546Z" fill="#E5EFB1"/>
<path d="M19.5807 4.93945C18.6192 5.48273 17.7576 6.18637 17.0332 7.01998C16.902 7.17322 16.837 7.37226 16.8523 7.57343C16.8677 7.77459 16.9622 7.96145 17.1152 8.093C17.2549 8.20521 17.4275 8.26851 17.6066 8.27321C17.7163 8.27363 17.8247 8.24959 17.9238 8.20283C18.023 8.15607 18.1105 8.08777 18.18 8.0029C18.5939 7.51988 19.0641 7.08814 19.5807 6.71691V4.93945Z" fill="#FF8327"/>
<path d="M61.068 8.21546C61.2472 8.21076 61.4198 8.14746 61.5595 8.03526C61.7125 7.9037 61.807 7.71685 61.8223 7.51568C61.8377 7.31452 61.7726 7.11548 61.6414 6.96223C59.5445 4.50492 56.0142 3.06329 51.1405 2.6947C51.0404 2.68688 50.9397 2.69892 50.8443 2.73014C50.7489 2.76135 50.6606 2.81113 50.5845 2.87659C50.5083 2.94206 50.4459 3.02192 50.4008 3.1116C50.3556 3.20127 50.3286 3.29899 50.3214 3.39913C50.3124 3.4988 50.3234 3.59926 50.3537 3.69464C50.384 3.79002 50.4329 3.87842 50.4978 3.95467C50.5626 4.03092 50.6419 4.09349 50.7312 4.13875C50.8204 4.184 50.9178 4.21102 51.0176 4.21823C55.4736 4.55406 58.6599 5.80729 60.4865 7.95335C60.5576 8.0378 60.6468 8.1052 60.7474 8.15056C60.8481 8.19593 60.9577 8.21811 61.068 8.21546Z" fill="#E5EFB1"/>
<path d="M59.0942 4.93945C60.0557 5.48273 60.9173 6.18637 61.6417 7.01998C61.7729 7.17322 61.838 7.37226 61.8226 7.57343C61.8072 7.77459 61.7127 7.96145 61.5597 8.093C61.42 8.20521 61.2474 8.26851 61.0683 8.27321C60.9586 8.27363 60.8503 8.24959 60.7511 8.20283C60.6519 8.15607 60.5644 8.08777 60.4949 8.0029C60.0796 7.5285 59.6094 7.10507 59.0942 6.74148V4.93945Z" fill="#FF8327"/>
<path d="M62.1741 116.706L62.0184 114.912C60.2573 116.444 57.5789 116.755 54.1223 117.312C53.9359 117.358 53.7736 117.472 53.6678 117.632C53.562 117.792 53.5205 117.986 53.5515 118.175C53.5826 118.365 53.6839 118.535 53.8352 118.653C53.9866 118.771 54.1768 118.827 54.368 118.811C58.2833 118.18 60.6587 117.894 62.1741 116.706Z" fill="#FB663E"/>
<path d="M16.2549 116.706L16.4105 114.912C18.1798 116.444 20.8582 116.755 24.3067 117.312C24.493 117.358 24.6553 117.472 24.7611 117.632C24.8669 117.792 24.9084 117.986 24.8774 118.175C24.8464 118.365 24.745 118.535 24.5937 118.653C24.4423 118.771 24.2521 118.827 24.0609 118.811C20.1784 118.18 17.8112 117.894 16.2549 116.706Z" fill="#FB663E"/>
</g>
<defs>
<filter id="filter0_d_977_9028" x="3" y="0" width="68.292" height="128.414" filterUnits="userSpaceOnUse" color-interpolation-filters="sRGB">
<feFlood flood-opacity="0" result="BackgroundImageFix"/>
<feColorMatrix in="SourceAlpha" type="matrix" values="0 0 0 0 0 0 0 0 0 0 0 0 0 0 0 0 0 0 127 0" result="hardAlpha"/>
<feOffset dx="-5" dy="6"/>
<feComposite in2="hardAlpha" operator="out"/>
<feColorMatrix type="matrix" values="0 0 0 0 0 0 0 0 0 0 0 0 0 0 0 0 0 0 0.25 0"/>
<feBlend mode="normal" in2="BackgroundImageFix" result="effect1_dropShadow_977_9028"/>
<feBlend mode="normal" in="SourceGraphic" in2="effect1_dropShadow_977_9028" result="shape"/>
</filter>
<clipPath id="clip0_977_9028">
<rect width="70.8853" height="130" fill="white" transform="translate(0.159668)"/>
</clipPath>
</defs>
</svg>
