<svg width="71" height="130" viewBox="0 0 71 130" fill="none" xmlns="http://www.w3.org/2000/svg">
<g opacity="0.3" filter="url(#filter0_d_977_8946)">
<path d="M69.6184 46.2955L63.9319 45.6974C64.1951 60.8508 64.3466 75.0471 64.211 87.0342L65.2877 90.0808V107.404L62.8951 114.254C61.946 118.29 59.1307 120.802 55.6055 121.193C44.4145 122.461 33.1161 122.461 21.9251 121.193C18.4159 120.802 15.6006 118.306 14.6435 114.278L12.211 107.404V90.0808L13.3994 86.7391C13.2797 74.7759 13.3994 60.6992 13.6466 45.7054L8 46.2955V45.9127C8.00117 45.083 8.30874 44.283 8.86368 43.6663C9.41861 43.0495 10.1818 42.6595 11.0067 42.571L12.881 42.3716C13.1506 42.3495 13.4218 42.3821 13.6785 42.4673C13.6785 40.7925 13.7344 39.1096 13.7583 37.4109L12.1632 32.9685V15.6458L14.3963 9.3532C15.146 5.74032 18.7988 1.99185 23.5681 1.22621C33.6202 -0.408736 43.8705 -0.408736 53.9227 1.22621C58.708 2.02375 62.3448 5.80412 63.0626 9.42498L65.2718 15.6698V32.9685L63.7564 37.2434C63.7963 39.006 63.8282 40.7446 63.8601 42.4833C64.136 42.3852 64.4297 42.3471 64.7215 42.3716L66.5877 42.571C67.4141 42.6576 68.1792 43.0469 68.7358 43.6638C69.2924 44.2808 69.6011 45.0818 69.6024 45.9127L69.6184 46.2955Z" fill="#314754"/>
</g>
<path d="M55.7843 121.394C44.596 122.662 33.3002 122.662 22.1119 121.394C17.7493 120.908 14.4714 117.183 14.4714 111.329C12.8205 92.1881 13.6739 51.1623 14.4714 10.9022C14.4714 6.91447 18.4591 2.28871 23.8027 1.42736C33.8522 -0.207557 44.0998 -0.207557 54.1493 1.42736C59.5009 2.26478 63.3929 6.91447 63.3929 10.8623C64.2622 51.1464 65.2352 92.1721 63.3929 111.353C63.3929 117.183 60.1469 120.908 55.7843 121.394Z" fill="#DB0045"/>
<path d="M38.948 118.658C33.6175 118.654 28.2917 118.343 22.9971 117.725C19.145 117.287 16.6646 113.913 16.6646 109.112L15.9229 101.934V42.2695C15.6616 32.7909 15.9092 23.305 16.6646 13.8529C16.6646 10.6627 19.9824 6.60324 24.7517 5.87747C29.4943 5.06885 34.2965 4.66066 39.1075 4.65723C43.8198 4.6577 48.5236 5.05791 53.1683 5.85355C57.9057 6.65109 61.2075 10.6867 61.2075 13.829C62.1008 21.31 62.2284 33.3928 61.9413 42.2775L61.9812 101.974L61.1836 109.152C61.1836 113.937 58.6953 117.327 54.8511 117.765C49.5716 118.368 44.2618 118.666 38.948 118.658V118.658Z" fill="#FF5C65"/>
<path d="M15.9067 42.2695V101.966C30.8753 106.875 47.0204 106.875 61.989 101.966V42.2695C52.0037 32.2763 26.227 31.9413 15.9067 42.2695Z" fill="#33435B"/>
<path d="M61.9172 95.7532C61.4916 95.6434 61.0755 95.4994 60.6731 95.3225H59.405V94.6127C53.9258 90.7525 55.816 80.1771 55.3614 74.5624C54.8908 68.7801 54.0774 62.4237 55.8399 56.7691C56.9007 53.3397 57.9774 49.647 59.405 46.1936V44.9575H59.9313C60.2264 44.2955 60.5455 43.6335 60.8804 42.9955V41.2489C55.8798 37.0378 47.8724 34.8127 39.7534 34.6611V105.643C47.3067 105.542 54.8021 104.308 61.989 101.982V95.7851L61.9172 95.7532Z" fill="#2E6578"/>
<path d="M23.2842 60.8602C23.1337 60.8603 22.9867 60.8146 22.8627 60.7291C22.7388 60.6436 22.6438 60.5225 22.5904 60.3817L15.8671 41.8946C15.8004 41.7116 15.8092 41.5097 15.8915 41.3332C15.9738 41.1567 16.1227 41.0201 16.3057 40.9535C16.4887 40.8869 16.6906 40.8957 16.8671 40.9779C17.0436 41.0602 17.1802 41.2092 17.2468 41.3922L23.9781 59.8713C24.0451 60.0553 24.0366 60.2585 23.9544 60.4363C23.8723 60.6141 23.7231 60.7522 23.5395 60.8204C23.4575 60.8492 23.371 60.8627 23.2842 60.8602V60.8602Z" fill="#DB0045"/>
<path d="M24.9988 68.5811H15.9067V70.7903H24.9988V68.5811Z" fill="#DB0045"/>
<path d="M54.62 60.8607C54.5357 60.8766 54.4491 60.8766 54.3648 60.8607C54.1811 60.7924 54.032 60.6544 53.9498 60.4766C53.8676 60.2987 53.8591 60.0956 53.9261 59.9116L60.6574 41.4324C60.7356 41.2633 60.8746 41.1297 61.0468 41.0584C61.219 40.9871 61.4118 40.9832 61.5867 41.0475C61.7616 41.1119 61.9059 41.2397 61.9909 41.4056C62.0758 41.5715 62.0952 41.7633 62.0451 41.9429L55.3059 60.422C55.2485 60.5553 55.1525 60.6684 55.0302 60.7466C54.908 60.8248 54.7651 60.8645 54.62 60.8607Z" fill="#DB0045"/>
<path d="M61.9892 101.958L52.7695 86.3665L55.8082 82.9131L61.9812 92.8027L61.9892 101.958Z" fill="#DB0045"/>
<path d="M15.7153 101.958L24.9429 86.3665L21.8963 82.9131L15.7233 92.8027L15.7153 101.958Z" fill="#DB0045"/>
<path d="M61.989 68.5811H52.897V70.7903H61.989V68.5811Z" fill="#DB0045"/>
<path d="M38.9319 95.3229C32.8982 95.3063 26.8924 94.502 21.0669 92.9303V55.2781C32.547 50.6951 45.3487 50.6951 56.8289 55.2781V92.9303C50.9922 94.5005 44.9761 95.3048 38.9319 95.3229V95.3229Z" fill="#FF5C65"/>
<path d="M15.2131 45.7629L8.17871 46.4966V46.1138C8.17811 45.2836 8.48509 44.4827 9.04037 43.8655C9.59564 43.2484 10.3599 42.8588 11.1855 42.7721L13.0597 42.5727C13.3319 42.5448 13.6069 42.5743 13.8669 42.6594C14.127 42.7446 14.3662 42.8833 14.5692 43.0668C14.7722 43.2502 14.9344 43.4743 15.0453 43.7244C15.1562 43.9745 15.2134 44.2451 15.2131 44.5187V45.7629Z" fill="#FF5C65"/>
<path d="M62.7949 45.7629L69.8293 46.4966V46.1138C69.8297 45.2824 69.5216 44.4804 68.9647 43.8631C68.4078 43.2458 67.6416 42.857 66.8146 42.7721L64.9882 42.5727C64.716 42.5448 64.441 42.5743 64.181 42.6594C63.9209 42.7446 63.6817 42.8833 63.4787 43.0668C63.2757 43.2502 63.1135 43.4743 63.0026 43.7244C62.8916 43.9745 62.8345 44.2451 62.8348 44.5187L62.7949 45.7629Z" fill="#FF5C65"/>
<path d="M17.4541 10.7353L26.3149 6.48439C26.8776 6.21349 27.3522 5.7889 27.6839 5.25966C28.0155 4.73043 28.1907 4.11816 28.1891 3.49359V3.49359C28.1895 3.4196 28.1734 3.34645 28.1418 3.27953C28.1102 3.21262 28.064 3.15365 28.0066 3.10696C27.9492 3.06027 27.8821 3.02706 27.8101 3.00977C27.7382 2.99249 27.6633 2.99157 27.5909 3.00709L22.9811 3.98807C21.4197 4.30794 20.0167 5.1574 19.0095 6.39272C18.0024 7.62804 17.4529 9.17336 17.4541 10.7672V10.7353Z" fill="#33435B"/>
<path d="M20.2695 5.16797C19.3933 5.81064 18.6815 6.65143 18.1922 7.62168C17.7029 8.59194 17.45 9.66415 17.4542 10.7508L20.2695 9.40294V5.16797Z" fill="#FF8327"/>
<path d="M60.4099 10.7345L51.5492 6.48358C50.9855 6.21305 50.5098 5.78877 50.1768 5.25962C49.8438 4.73047 49.6671 4.118 49.667 3.49278V3.49278C49.668 3.41926 49.6851 3.34684 49.7171 3.28066C49.7491 3.21447 49.7953 3.15612 49.8524 3.10972C49.9094 3.06332 49.9759 3.03001 50.0473 3.01214C50.1186 2.99427 50.193 2.99227 50.2652 3.00628L54.8829 3.98726C56.4437 4.30852 57.8458 5.15836 58.8527 6.39337C59.8596 7.62839 60.4096 9.17295 60.4099 10.7664V10.7345Z" fill="#33435B"/>
<path d="M57.5947 5.16797C58.47 5.81153 59.1811 6.65251 59.6703 7.62256C60.1595 8.59261 60.4129 9.66438 60.4101 10.7508L57.5947 9.40294V5.16797Z" fill="#FF8327"/>
<path d="M14.9976 40.5389L12.3896 33.1696V15.8469L14.9976 8.47754V40.5389Z" fill="#DB0045"/>
<path d="M62.8906 40.5389L65.4986 33.1696V15.8469L62.8906 8.47754V40.5389Z" fill="#DB0045"/>
<path d="M14.9976 114.974L12.3896 107.605V90.2824L14.9976 82.9131V114.974Z" fill="#DB0045"/>
<path d="M62.8906 114.974L65.4986 107.605V90.2824L62.8906 82.9131V114.974Z" fill="#DB0045"/>
<path d="M39.299 121.339C30.8131 121.339 22.3512 120.781 19.9824 119.656C19.718 119.531 19.514 119.306 19.4153 119.031C19.3166 118.756 19.3313 118.453 19.4561 118.188C19.5809 117.924 19.8056 117.72 20.0808 117.621C20.356 117.523 20.6591 117.537 20.9235 117.662C25.0867 119.624 53.3916 119.616 57.8499 117.662C58.1153 117.562 58.409 117.567 58.6706 117.677C58.9322 117.786 59.1418 117.992 59.2563 118.252C59.3708 118.511 59.3813 118.805 59.2859 119.072C59.1904 119.339 58.9962 119.56 58.7432 119.688C56.215 120.781 47.745 121.339 39.299 121.339Z" fill="#332A36"/>
<path d="M25.5014 118.555C23.942 118.467 22.4018 118.167 20.9235 117.662C20.7926 117.6 20.6508 117.565 20.5062 117.558C20.3616 117.551 20.217 117.572 20.0808 117.621C19.8056 117.72 19.5809 117.924 19.4561 118.188C19.3313 118.453 19.3166 118.756 19.4153 119.031C19.514 119.306 19.718 119.531 19.9824 119.656C21.7624 120.275 23.6199 120.643 25.5014 120.749V118.555Z" fill="#9F102F"/>
<path d="M59.3093 118.213C59.1905 117.944 58.9701 117.734 58.6965 117.628C58.423 117.522 58.1184 117.528 57.8497 117.646C55.9632 118.232 54.0091 118.573 52.0356 118.659V120.852C55.1461 120.581 57.5786 120.183 58.743 119.672C59.0114 119.553 59.2216 119.333 59.3278 119.059C59.4339 118.786 59.4273 118.481 59.3093 118.213V118.213Z" fill="#9F102F"/>
<defs>
<filter id="filter0_d_977_8946" x="3" y="0" width="66.6182" height="128.145" filterUnits="userSpaceOnUse" color-interpolation-filters="sRGB">
<feFlood flood-opacity="0" result="BackgroundImageFix"/>
<feColorMatrix in="SourceAlpha" type="matrix" values="0 0 0 0 0 0 0 0 0 0 0 0 0 0 0 0 0 0 127 0" result="hardAlpha"/>
<feOffset dx="-5" dy="6"/>
<feComposite in2="hardAlpha" operator="out"/>
<feColorMatrix type="matrix" values="0 0 0 0 0 0 0 0 0 0 0 0 0 0 0 0 0 0 0.25 0"/>
<feBlend mode="normal" in2="BackgroundImageFix" result="effect1_dropShadow_977_8946"/>
<feBlend mode="normal" in="SourceGraphic" in2="effect1_dropShadow_977_8946" result="shape"/>
</filter>
</defs>
</svg>
