<svg width="69" height="130" viewBox="0 0 69 130" fill="none" xmlns="http://www.w3.org/2000/svg">
<g clip-path="url(#clip0_977_9072)">
<g opacity="0.3" filter="url(#filter0_d_977_9072)">
<path d="M68.3331 50.6379C68.3317 49.8039 68.0219 49.3806 67.4633 48.7614C66.9046 48.1421 66.8294 48.087 66 48H64.5C64.3239 38.3941 63.9618 19.5757 63.7537 9.72962C63.7537 5.76718 59.8153 1.10032 54.436 0.227779C44.349 -1.40926 34.0641 -1.40926 23.9772 0.227779C18.9181 1.02827 15.1158 5.19084 14.6595 8.98517C14.1152 13.58 14.0911 44.7112 14.0671 46.4482L12.0178 46.6563C11.1899 46.7451 10.4239 47.1366 9.86687 47.7557C9.30988 48.3747 9.00117 49.1777 9 50.0104V50.3946L14.0031 49.8743C13.5468 78.3479 11.9298 96.5511 13.1305 110.536C13.1599 113.047 14.1062 115.461 15.7914 117.323C17.4766 119.185 19.7843 120.367 22.2802 120.646C33.5129 121.911 44.8522 121.911 56.085 120.646C58.5794 120.365 60.8852 119.182 62.5687 117.32C64.2523 115.459 65.1975 113.046 65.2266 110.536C66.5714 96.5511 64.9464 78.9593 64.4261 50.4938L68.3331 51.0061V50.6379Z" fill="#314754"/>
</g>
<path d="M55.4119 121.659C44.1791 122.923 32.8398 122.923 21.607 121.659C19.1112 121.379 16.8035 120.198 15.1183 118.335C13.4331 116.473 12.4868 114.06 12.4574 111.548C10.8084 92.3365 13.1538 51.1671 13.9383 10.7502C13.9383 6.74778 17.9408 2.10492 23.3041 1.24039C33.3937 -0.396536 43.6812 -0.396536 53.7709 1.24039C59.1422 2.11293 63.0806 6.7798 63.0806 10.7422C63.9531 51.1671 66.4026 92.3445 64.5535 111.604C64.5108 114.105 63.5595 116.504 61.8773 118.354C60.195 120.204 57.8968 121.379 55.4119 121.659Z" fill="#1D988D"/>
<path d="M38.5052 118.169C32.9152 118.165 27.3298 117.85 21.7749 117.224C17.9165 116.792 15.419 113.406 15.419 108.587L15.419 38.5277C14.6963 29.0369 14.6963 19.5049 15.419 10.0141C15.419 6.81216 18.757 5.69147 23.536 4.92299C28.541 4.11203 33.6029 3.70247 38.6733 3.69824C43.6499 3.69826 48.6184 4.09981 53.5304 4.89898C58.2854 5.69947 61.5994 6.79616 61.5994 9.97411C62.3532 19.477 62.3532 29.0247 61.5994 38.5277L61.5994 108.587C61.5994 113.39 59.1019 116.792 55.2435 117.224C49.686 117.85 44.0979 118.165 38.5052 118.169V118.169Z" fill="#45B8A1"/>
<path d="M17.4282 43.0025C17.1721 43.0063 16.9226 42.921 16.7225 42.7612C16.5223 42.6014 16.384 42.377 16.331 42.1264C16.278 41.8758 16.3138 41.6146 16.4322 41.3875C16.5505 41.1603 16.7442 40.9814 16.9799 40.8812C29.6677 35.2778 46.5981 35.1817 60.1185 40.7211C60.261 40.7709 60.392 40.8491 60.5034 40.9511C60.6147 41.0531 60.7041 41.1767 60.7662 41.3144C60.8283 41.452 60.8617 41.6008 60.8644 41.7518C60.8671 41.9028 60.839 42.0528 60.7819 42.1926C60.7248 42.3323 60.6398 42.459 60.5322 42.5649C60.4245 42.6708 60.2965 42.7537 60.1558 42.8085C60.015 42.8633 59.8647 42.8889 59.7138 42.8838C59.5628 42.8786 59.4146 42.8427 59.2779 42.7784C46.294 37.4551 30.0439 37.5032 17.8765 42.9065C17.7354 42.9695 17.5827 43.0022 17.4282 43.0025Z" fill="#33435B"/>
<path d="M15.3872 43.002L15.3872 83.8272L17.5005 102.238C17.7513 104.474 18.6851 106.578 20.1748 108.264C21.6646 109.95 23.6377 111.136 25.8256 111.66C34.1202 113.77 42.8107 113.77 51.1052 111.66C53.3037 111.144 55.2896 109.962 56.7922 108.276C58.2949 106.59 59.2412 104.482 59.5024 102.238L61.6317 83.4429L61.6317 43.002C46.2142 36.0644 30.7994 36.0644 15.3872 43.002Z" fill="#33435B"/>
<path d="M21.479 77.9756L15.3872 83.7711L17.5005 102.239C17.8358 105.093 19.2719 107.703 21.503 109.515L21.479 77.9756Z" fill="#1D988D"/>
<path d="M55.6276 59.0125C57.0205 52.3364 58.3333 49.7268 60.9189 42.6904C53.805 39.5097 46.1055 37.8493 38.313 37.8154L38.313 113.262C42.4255 113.301 46.5283 112.855 50.5365 111.933C52.7886 111.426 54.7796 110.118 56.1388 108.252C57.498 106.386 58.1329 104.09 57.9251 101.791L56.4522 85.7089C55.2274 81.2742 55.5316 59.4528 55.6276 59.0125Z" fill="#2E6578"/>
<path d="M54.9395 78.0557L54.9395 109.907C56.1954 109.021 57.2507 107.88 58.0368 106.558C58.8229 105.237 59.3222 103.765 59.5023 102.239L61.6316 83.443L54.9395 78.0557Z" fill="#1D988D"/>
<path d="M22.7915 61.6383C22.6404 61.6384 22.4928 61.5925 22.3684 61.5067C22.244 61.421 22.1487 61.2993 22.0951 61.158L15.499 43.0989C15.4654 43.008 15.4499 42.9113 15.4537 42.8145C15.4574 42.7176 15.4802 42.6224 15.5207 42.5343C15.5612 42.4462 15.6186 42.367 15.6898 42.3011C15.7609 42.2352 15.8443 42.184 15.9353 42.1504C16.0262 42.1167 16.1229 42.1013 16.2197 42.105C16.3166 42.1088 16.4118 42.1315 16.4999 42.172C16.588 42.2125 16.6672 42.27 16.7331 42.3411C16.799 42.4123 16.8502 42.4957 16.8838 42.5866L23.4879 60.6137C23.5526 60.7996 23.5419 61.0034 23.4581 61.1815C23.3743 61.3595 23.2241 61.4977 23.0396 61.5663C22.9608 61.6022 22.8772 61.6264 22.7915 61.6383V61.6383Z" fill="#33435B"/>
<path d="M54.227 61.6382C54.142 61.6492 54.0559 61.6492 53.9709 61.6382C53.788 61.5682 53.6401 61.429 53.5592 61.2507C53.4783 61.0724 53.4709 60.8694 53.5386 60.6856L60.1186 42.7226C60.1986 42.5563 60.3374 42.4257 60.5082 42.356C60.679 42.2863 60.8695 42.2825 61.043 42.3452C61.2164 42.408 61.3604 42.533 61.4469 42.6959C61.5335 42.8588 61.5565 43.048 61.5115 43.2269L54.9394 61.1579C54.8849 61.3018 54.7871 61.4252 54.6595 61.5112C54.5319 61.5973 54.3808 61.6416 54.227 61.6382V61.6382Z" fill="#33435B"/>
<path d="M38.4892 88.0858C34.2481 88.0799 30.0167 87.6806 25.8494 86.893C24.3548 86.6007 23.0088 85.7966 22.043 84.619C21.0773 83.4414 20.5522 81.964 20.5582 80.441L20.5582 58.1473C20.5611 57.5183 20.7601 56.9057 21.1274 56.395C21.4946 55.8842 22.012 55.5006 22.6074 55.2976C32.8999 51.6795 44.1185 51.6795 54.411 55.2976C55.0056 55.5009 55.5219 55.8848 55.8878 56.3957C56.2537 56.9066 56.4511 57.5189 56.4523 58.1473V80.4331C56.4617 81.9557 55.9389 83.4337 54.9742 84.6118C54.0095 85.7899 52.6636 86.594 51.169 86.885C46.989 87.6792 42.744 88.0812 38.4892 88.0858V88.0858Z" fill="#E5D1AB"/>
<path d="M15.387 50.6714L8.32666 51.4079V51.0076C8.32783 50.1749 8.63656 49.3719 9.19355 48.7529C9.75054 48.1338 10.5165 47.7424 11.3445 47.6536L15.347 47.2373L15.387 50.6714Z" fill="#45B8A1"/>
<path d="M61.5996 50.6714L68.66 51.4079V51.0076C68.6586 50.1736 68.3487 49.3696 67.7901 48.7504C67.2315 48.1312 66.4635 47.7405 65.6341 47.6536L61.6316 47.2373L61.5996 50.6714Z" fill="#45B8A1"/>
<path d="M17.7007 12.3918L25.7777 11.3752V4.37891L17.7007 5.39553V12.3918Z" fill="#1D988D"/>
<path d="M59.43 12.3918L51.353 11.3752V4.37891L59.43 5.39553V12.3918Z" fill="#1D988D"/>
<path d="M17.7007 10.9106V12.3915L25.7777 11.3749V9.42969L17.7007 10.9106Z" fill="#33435B"/>
<path d="M51.353 9.42969V11.3749L59.43 12.3915V10.9106L51.353 9.42969Z" fill="#33435B"/>
<path d="M24.1605 120.755H23.9604C21.687 120.45 19.3896 120.074 17.1402 119.626C16.9386 119.6 16.7444 119.533 16.5697 119.43C16.3951 119.326 16.2436 119.187 16.1249 119.022C16.0061 118.857 15.9226 118.67 15.8795 118.471C15.8363 118.272 15.8345 118.067 15.8742 117.868C15.9138 117.668 15.994 117.479 16.1099 117.313C16.2257 117.146 16.3747 117.004 16.5475 116.897C16.7203 116.79 16.9133 116.72 17.1144 116.691C17.3155 116.662 17.5205 116.675 17.7165 116.728C19.9019 117.16 22.1353 117.529 24.3526 117.817C24.7206 117.871 25.0548 118.062 25.2886 118.351C25.5224 118.64 25.6387 119.007 25.6145 119.378C25.5903 119.749 25.4273 120.098 25.1579 120.354C24.8885 120.611 24.5324 120.757 24.1605 120.763V120.755Z" fill="#9A0000"/>
<path d="M53.6666 120.651C53.2941 120.646 52.9368 120.502 52.666 120.246C52.3952 119.99 52.2308 119.642 52.2056 119.27C52.1803 118.898 52.2961 118.531 52.5298 118.241C52.7635 117.951 53.098 117.759 53.4665 117.705C55.4277 117.441 57.469 117.112 59.4302 116.736C59.8166 116.664 60.2158 116.748 60.5401 116.97C60.8643 117.193 61.0871 117.534 61.1592 117.921C61.2314 118.307 61.1472 118.707 60.925 119.031C60.7028 119.355 60.3609 119.578 59.9745 119.65C57.9333 120.034 55.876 120.362 53.8668 120.635C53.8009 120.648 53.7337 120.653 53.6666 120.651V120.651Z" fill="#9A0000"/>
</g>
<defs>
<filter id="filter0_d_977_9072" x="4" y="-1" width="64.333" height="128.595" filterUnits="userSpaceOnUse" color-interpolation-filters="sRGB">
<feFlood flood-opacity="0" result="BackgroundImageFix"/>
<feColorMatrix in="SourceAlpha" type="matrix" values="0 0 0 0 0 0 0 0 0 0 0 0 0 0 0 0 0 0 127 0" result="hardAlpha"/>
<feOffset dx="-5" dy="6"/>
<feComposite in2="hardAlpha" operator="out"/>
<feColorMatrix type="matrix" values="0 0 0 0 0 0 0 0 0 0 0 0 0 0 0 0 0 0 0.25 0"/>
<feBlend mode="normal" in2="BackgroundImageFix" result="effect1_dropShadow_977_9072"/>
<feBlend mode="normal" in="SourceGraphic" in2="effect1_dropShadow_977_9072" result="shape"/>
</filter>
<clipPath id="clip0_977_9072">
<rect width="67.7297" height="130" fill="white" transform="translate(0.930176)"/>
</clipPath>
</defs>
</svg>
