<svg width="68" height="130" viewBox="0 0 68 130" fill="none" xmlns="http://www.w3.org/2000/svg">
<g clip-path="url(#clip0_977_9000)">
<g opacity="0.3" filter="url(#filter0_d_977_9000)">
<path d="M67.3331 43.6458C67.3337 42.8126 67.0256 42.0086 66.4683 41.3892C65.911 40.7698 65.1439 40.3788 64.3153 40.2917L62.3701 40.0836C62.186 30.4777 61.9618 20.5836 61.7537 10.7295C61.7537 6.7671 57.8153 2.10023 52.444 1.2277C42.3543 -0.409232 32.0668 -0.409232 21.9772 1.2277C16.5819 2.09223 12.6115 6.75109 12.6115 10.7375C12.4273 20.5676 12.2272 30.4457 12.0671 40.0436L10.0179 40.2597C9.18918 40.3468 8.42215 40.7378 7.86482 41.3572C7.30749 41.9766 6.9994 42.7805 7 43.6138V43.998L12.0111 43.4697C11.5468 71.9432 11.4107 97.543 12.6115 111.512C12.6115 117.395 15.9095 121.117 20.2802 121.622C31.5125 122.895 42.8527 122.895 54.085 121.622C58.4637 121.133 61.7537 117.395 61.7537 111.512C63.0985 97.535 62.9464 71.9352 62.4341 43.4697L67.3331 43.982V43.6458Z" fill="#314754"/>
</g>
<path d="M54.6164 121.659C43.3836 122.924 32.0444 122.924 20.8116 121.659C16.4409 121.171 13.1429 117.433 13.1429 111.549C11.4939 92.3372 12.3424 51.1679 13.1429 10.759C13.1429 6.75656 17.1454 2.11371 22.5087 1.24918C32.5983 -0.387747 42.8858 -0.387747 52.9754 1.24918C58.3467 2.0897 62.3092 6.79658 62.3092 10.719C63.1817 51.1519 64.1583 92.3692 62.3092 111.581C62.3092 117.433 58.9951 121.171 54.6164 121.659Z" fill="#D9D4A2"/>
<path d="M37.7179 121.131C32.3678 121.126 27.0223 120.814 21.7081 120.194C17.8497 119.754 15.3602 116.368 15.3602 111.549L14.6157 102.143L14.6157 12.2319C14.6157 9.02991 17.9538 4.95541 22.7407 4.22696C27.7457 3.41535 32.8077 3.00579 37.878 3.00221C42.8429 2.99061 47.8006 3.37878 52.7032 4.16293C57.4581 4.96342 60.7721 9.01391 60.7721 12.1679L60.7721 102.143L60.0357 111.549C60.0357 116.352 57.5381 119.754 53.6798 120.194C48.3815 120.812 43.0521 121.125 37.7179 121.131Z" fill="#E5EFB1"/>
<path d="M14.5918 38.5277L14.5918 102.143C29.6123 107.074 45.8158 107.074 60.8363 102.143L60.8363 38.5277C45.4294 31.6275 30.0146 31.6275 14.5918 38.5277Z" fill="#33435B"/>
<path d="M53.9358 76.8792C53.8637 76.559 53.7837 76.2468 53.7276 75.9266C53.5918 75.212 53.6358 74.4747 53.8557 73.7813C53.5005 70.7771 53.3454 67.7526 53.3914 64.7278C53.4026 64.0971 53.5443 63.4757 53.8077 62.9026C53.1925 62.0942 52.8706 61.1005 52.8951 60.0849C52.8678 59.6419 52.9028 59.1973 52.9992 58.7641C54.3921 52.088 57.538 45.2678 60.1236 38.2314C53.0023 35.0474 45.2942 33.3869 37.4937 33.3564L37.4937 105.841C45.0194 105.837 52.5019 104.703 59.6913 102.479C57.1217 98.2524 54.4641 93.9217 53.1593 89.2308C51.9505 84.8201 52.623 80.8176 53.9358 76.8792Z" fill="#2E6578"/>
<path d="M21.9961 57.227C21.845 57.227 21.6974 57.1812 21.573 57.0954C21.4486 57.0096 21.3533 56.8879 21.2997 56.7467L14.7036 38.6876C14.6534 38.5074 14.6728 38.3148 14.7581 38.1483C14.8433 37.9818 14.9882 37.8535 15.1637 37.7889C15.3393 37.7243 15.5328 37.7282 15.7056 37.7998C15.8784 37.8714 16.018 38.0054 16.0965 38.1752L22.6925 56.2344C22.7598 56.4191 22.7513 56.6229 22.6688 56.8014C22.5863 56.9799 22.4366 57.1185 22.2523 57.1869C22.169 57.2113 22.0829 57.2248 21.9961 57.227Z" fill="#D9D4A2"/>
<path d="M15.6644 103.103C15.4825 103.101 15.3039 103.054 15.1441 102.967C15.0153 102.899 14.9015 102.805 14.8091 102.692C14.7167 102.579 14.6477 102.448 14.606 102.308C14.5643 102.168 14.5508 102.022 14.5662 101.876C14.5816 101.731 14.6257 101.59 14.6958 101.462L22.8449 86.4212C22.9085 86.2829 22.9997 86.1591 23.1131 86.0576C23.2264 85.956 23.3593 85.8787 23.5037 85.8306C23.6481 85.7824 23.8008 85.7644 23.9524 85.7776C24.104 85.7909 24.2513 85.835 24.3852 85.9075C24.519 85.9799 24.6366 86.079 24.7306 86.1986C24.8247 86.3183 24.8931 86.456 24.9318 86.6032C24.9705 86.7504 24.9786 86.9039 24.9556 87.0544C24.9326 87.2048 24.879 87.3489 24.7981 87.4778L16.6811 102.519C16.5814 102.7 16.4339 102.851 16.2546 102.954C16.0753 103.057 15.8712 103.108 15.6644 103.103V103.103Z" fill="#D9D4A2"/>
<path d="M53.4316 57.227C53.3474 57.2254 53.2639 57.2119 53.1834 57.187C52.9991 57.1185 52.8494 56.9799 52.7669 56.8015C52.6844 56.623 52.6759 56.4191 52.7432 56.2344L59.3232 38.2713C59.3917 38.087 59.5303 37.9373 59.7088 37.8548C59.8872 37.7723 60.0911 37.7638 60.2758 37.8311C60.3674 37.8632 60.4517 37.9134 60.5236 37.9786C60.5956 38.0438 60.6538 38.1227 60.6948 38.2107C60.7358 38.2987 60.7589 38.394 60.7625 38.491C60.7662 38.588 60.7504 38.6848 60.7161 38.7757L54.128 56.7467C54.0744 56.888 53.9791 57.0096 53.8547 57.0954C53.7303 57.1812 53.5827 57.2271 53.4316 57.227V57.227Z" fill="#D9D4A2"/>
<path d="M59.7152 103.04C59.5147 103.04 59.3179 102.986 59.1459 102.883C58.9738 102.78 58.8331 102.632 58.7386 102.455L50.6296 87.478C50.5115 87.2213 50.4956 86.9292 50.585 86.6611C50.6744 86.393 50.8625 86.1689 51.1111 86.0344C51.3597 85.9 51.6501 85.8651 51.9235 85.937C52.1968 86.0088 52.4325 86.182 52.5828 86.4214L60.7078 101.399C60.8473 101.658 60.8785 101.962 60.7945 102.244C60.7104 102.526 60.5181 102.763 60.2596 102.904C60.0935 102.997 59.9056 103.044 59.7152 103.04V103.04Z" fill="#D9D4A2"/>
<path d="M37.6941 95.4911C33.624 95.487 29.5625 95.1173 25.5586 94.3864C23.9407 94.0979 22.4753 93.2508 21.4177 91.9928C20.3601 90.7348 19.7774 89.1457 19.7711 87.5022L19.7711 54.682C19.7664 53.7763 20.0491 52.8924 20.5784 52.1574C21.1077 51.4224 21.8564 50.8742 22.7169 50.5915C32.4579 47.3679 42.9783 47.3679 52.7193 50.5915C53.5791 50.8753 54.3271 51.4238 54.8563 52.1585C55.3854 52.8933 55.6685 53.7766 55.6651 54.682L55.6651 87.5022C55.6616 89.1477 55.0789 90.7394 54.0192 91.9982C52.9594 93.2569 51.4904 94.1025 49.8696 94.3864C45.8551 95.1196 41.783 95.492 37.7021 95.4991L37.6941 95.4911Z" fill="#E5EFB1"/>
<path d="M14.5916 43.2749L7.53125 44.0194V43.6191C7.53065 42.7859 7.83875 41.982 8.39607 41.3626C8.9534 40.7432 9.72043 40.3522 10.5491 40.2651L14.5916 39.8408V43.2749Z" fill="#E5EFB1"/>
<path d="M60.8042 43.2749L67.8645 44.0194V43.6191C67.8651 42.7859 67.557 41.982 66.9997 41.3626C66.4424 40.7432 65.6754 40.3522 64.8467 40.2651L60.8442 39.8408L60.8042 43.2749Z" fill="#E5EFB1"/>
<path d="M47.0277 3.17029C40.845 2.40175 34.5909 2.40175 28.4082 3.17029L28.2241 1.70539C34.5264 0.921121 40.9015 0.921121 47.2038 1.70539L47.0277 3.17029Z" fill="#637784"/>
<path d="M55.6652 120.946C55.4965 120.951 55.3315 120.897 55.1977 120.794C55.0639 120.692 54.9694 120.546 54.93 120.382C54.8906 120.218 54.9088 120.045 54.9814 119.893C55.054 119.741 55.1767 119.618 55.329 119.546L58.1467 118.129C58.2334 118.085 58.3279 118.059 58.4247 118.052C58.5215 118.045 58.6188 118.057 58.711 118.087C58.8031 118.118 58.8884 118.166 58.9619 118.229C59.0354 118.293 59.0957 118.37 59.1393 118.457C59.1829 118.544 59.209 118.638 59.2162 118.735C59.2233 118.832 59.2112 118.929 59.1808 119.021C59.1503 119.113 59.102 119.199 59.0385 119.272C58.9751 119.346 58.8978 119.406 58.8111 119.449L55.9934 120.866C55.8923 120.92 55.7795 120.947 55.6652 120.946V120.946Z" fill="#D60009"/>
<path d="M19.683 120.946C19.5503 120.948 19.4198 120.912 19.3067 120.842L16.9053 119.425C16.7365 119.319 16.6168 119.15 16.5725 118.956C16.5282 118.761 16.563 118.557 16.6691 118.389C16.7753 118.22 16.9441 118.1 17.1385 118.056C17.3329 118.012 17.537 118.046 17.7058 118.153L20.1072 119.569C20.2436 119.654 20.3489 119.78 20.4076 119.93C20.4663 120.079 20.4751 120.243 20.4328 120.398C20.3905 120.553 20.2994 120.69 20.1729 120.789C20.0464 120.887 19.8914 120.943 19.731 120.946H19.683Z" fill="#D60009"/>
<path d="M16.8013 6.79636C16.433 8.76557 17.2495 10.5747 18.6184 10.7988C19.9872 11.023 21.3961 9.65412 21.7643 7.68491C22.1325 5.7157 21.316 3.90658 19.9472 3.68245C18.5784 3.45831 17.1695 4.81114 16.8013 6.79636Z" fill="#BFC49F"/>
<path d="M18.9462 11.1831C18.8182 11.191 18.6899 11.191 18.5619 11.1831C17.017 10.8949 16.0804 8.90968 16.4807 6.75636C16.8809 4.60303 18.4499 3.09811 20.0108 3.37828C21.5718 3.65845 22.4924 5.65168 22.1001 7.797C21.7239 9.71818 20.3711 11.1831 18.9462 11.1831ZM19.6186 3.97865C18.5059 3.97865 17.4333 5.21141 17.1291 6.84441C16.7929 8.63752 17.4893 10.2705 18.674 10.4947C19.8587 10.7188 21.0755 9.41399 21.4357 7.6449C21.7959 5.87582 21.0675 4.21879 19.8828 4.00266L19.6186 3.97865Z" fill="#D9D4A2"/>
<path d="M23.085 5.30699C22.7167 7.2762 23.5332 9.08531 24.9021 9.30945C26.2709 9.53359 27.6798 8.17275 28.048 6.19553C28.4162 4.21832 27.5997 2.41721 26.2309 2.19307C24.862 1.96893 23.4772 3.32977 23.085 5.30699Z" fill="#BFC49F"/>
<path d="M25.254 9.70164C25.1235 9.71384 24.9922 9.71384 24.8618 9.70164C23.3168 9.41346 22.3802 7.42824 22.7805 5.27491C23.1807 3.12159 24.7497 1.61666 26.3106 1.89683C27.8716 2.177 28.8002 4.17023 28.3999 6.32356C28.0317 8.23673 26.6789 9.70164 25.254 9.70164ZM25.9264 2.4972C24.8137 2.4972 23.7411 3.72996 23.4369 5.36297C23.1007 7.15607 23.7971 8.78907 24.9818 9.01321C26.1666 9.23735 27.3833 7.93255 27.7435 6.16346C28.1037 4.39437 27.3833 2.74535 26.1906 2.52122C26.1034 2.50528 26.015 2.49725 25.9264 2.4972V2.4972Z" fill="#D9D4A2"/>
<path d="M25.6543 8.71774C26.2158 8.71774 26.6709 8.09055 26.6709 7.31688C26.6709 6.5432 26.2158 5.91602 25.6543 5.91602C25.0929 5.91602 24.6377 6.5432 24.6377 7.31688C24.6377 8.09055 25.0929 8.71774 25.6543 8.71774Z" fill="#7E868D"/>
<path d="M18.418 8.72508C18.418 9.52557 18.8743 10.1259 19.4346 10.1259C19.9949 10.1259 20.4512 9.50156 20.4512 8.72508C20.4512 7.9486 19.9949 7.32422 19.4346 7.32422C18.8743 7.32422 18.418 7.9486 18.418 8.72508Z" fill="#7E868D"/>
<path d="M58.4826 6.79636C58.8508 8.76557 58.0343 10.5747 56.6655 10.7988C55.2966 11.023 53.8877 9.65412 53.5195 7.68491C53.1513 5.7157 53.9678 3.90658 55.3366 3.68245C56.7055 3.45831 58.1144 4.81114 58.4826 6.79636Z" fill="#BFC49F"/>
<path d="M56.3454 11.183C54.9125 11.183 53.5596 9.71806 53.1994 7.76486C52.7992 5.61954 53.7277 3.63431 55.2807 3.34614C56.8337 3.05796 58.4186 4.60291 58.8109 6.72422C59.2031 8.84552 58.2745 10.8628 56.7296 11.1509C56.6023 11.1696 56.474 11.1802 56.3454 11.183ZM55.6649 3.97852H55.4008C54.2161 4.19465 53.5196 5.83567 53.8478 7.62076C54.176 9.40586 55.4008 10.6947 56.6095 10.4705C57.8183 10.2464 58.4907 8.61338 58.1545 6.82027C57.8503 5.19527 56.7776 3.97852 55.6649 3.97852Z" fill="#D9D4A2"/>
<path d="M52.175 5.30699C52.5432 7.2762 51.7267 9.08531 50.3578 9.30945C48.989 9.53359 47.5801 8.17275 47.2119 6.19553C46.8437 4.21832 47.6602 2.41721 49.029 2.19307C50.3979 1.96893 51.8067 3.32977 52.175 5.30699Z" fill="#BFC49F"/>
<path d="M50.0293 9.70152C48.6044 9.70152 47.2515 8.23661 46.8913 6.29141C46.4911 4.13809 47.4196 2.15287 48.9726 1.86469C50.5256 1.57651 52.1105 3.12147 52.5028 5.24277C52.895 7.36408 51.9665 9.38132 50.4215 9.66949C50.292 9.69239 50.1607 9.70312 50.0293 9.70152V9.70152ZM49.3568 2.49709C49.269 2.48918 49.1806 2.48918 49.0927 2.49709C47.9079 2.72123 47.2115 4.35422 47.5397 6.13932C47.8679 7.92442 49.0927 9.21322 50.3014 8.98908C51.5102 8.76495 52.1826 7.13193 51.8464 5.33883C51.5422 3.72984 50.4695 2.49709 49.3568 2.49709Z" fill="#D9D4A2"/>
<path d="M50.646 7.32469C50.646 8.12518 50.1898 8.72555 49.6294 8.72555C49.0691 8.72555 48.6128 8.10117 48.6128 7.32469C48.6128 6.54821 49.0691 5.92383 49.6294 5.92383C50.1898 5.92383 50.646 6.54821 50.646 7.32469Z" fill="#7E868D"/>
<path d="M56.8658 8.72508C56.8658 9.52557 56.4095 10.1259 55.8491 10.1259C55.2888 10.1259 54.8325 9.50156 54.8325 8.72508C54.8325 7.9486 55.2888 7.32422 55.8491 7.32422C56.4095 7.32422 56.8658 7.9486 56.8658 8.72508Z" fill="#7E868D"/>
</g>
<defs>
<filter id="filter0_d_977_9000" x="2" y="0" width="65.333" height="128.576" filterUnits="userSpaceOnUse" color-interpolation-filters="sRGB">
<feFlood flood-opacity="0" result="BackgroundImageFix"/>
<feColorMatrix in="SourceAlpha" type="matrix" values="0 0 0 0 0 0 0 0 0 0 0 0 0 0 0 0 0 0 127 0" result="hardAlpha"/>
<feOffset dx="-5" dy="6"/>
<feComposite in2="hardAlpha" operator="out"/>
<feColorMatrix type="matrix" values="0 0 0 0 0 0 0 0 0 0 0 0 0 0 0 0 0 0 0.25 0"/>
<feBlend mode="normal" in2="BackgroundImageFix" result="effect1_dropShadow_977_9000"/>
<feBlend mode="normal" in="SourceGraphic" in2="effect1_dropShadow_977_9000" result="shape"/>
</filter>
<clipPath id="clip0_977_9000">
<rect width="67.7297" height="130" fill="white" transform="translate(0.134766)"/>
</clipPath>
</defs>
</svg>
